<svg width="29" height="29" viewBox="0 0 29 29" fill="none" xmlns="http://www.w3.org/2000/svg">
<path d="M12.8134 9.70801H25.6592M5.10596 19.9846H17.9517" stroke="#363636" stroke-width="2.45876" stroke-linecap="round"/>
<path d="M5.10651 9.70822C5.10651 11.8366 6.83188 13.5619 8.96024 13.5619C11.0886 13.5619 12.814 11.8366 12.814 9.70822C12.814 7.57986 11.0886 5.85449 8.96024 5.85449C6.83188 5.85449 5.10651 7.57986 5.10651 9.70822Z" stroke="#363636" stroke-width="2.45876" stroke-linecap="round"/>
<path d="M17.9512 19.9846C17.9512 22.1129 19.6766 23.8383 21.805 23.8383C23.9333 23.8383 25.6587 22.1129 25.6587 19.9846C25.6587 17.8562 23.9333 16.1309 21.805 16.1309C19.6766 16.1309 17.9512 17.8562 17.9512 19.9846Z" stroke="#363636" stroke-width="2.45876" stroke-linecap="round"/>
</svg>
