<svg width="19" height="19" viewBox="0 0 19 19" fill="none" xmlns="http://www.w3.org/2000/svg">
<path d="M8.81026 4.03994C8.69314 3.72107 8.45844 3.45911 8.15431 3.30778C7.85018 3.15645 7.49967 3.12723 7.17468 3.22611C5.6341 3.70111 4.55743 5.02319 4.7886 6.55269C5.04873 8.24984 5.62386 9.8834 6.48435 11.3692C7.3369 12.851 8.45489 14.1633 9.78243 15.2404C10.9763 16.2063 12.6514 15.9403 13.8326 14.8319C14.0811 14.5987 14.2318 14.28 14.2544 13.94C14.2771 13.6 14.1699 13.2641 13.9545 13L13.109 11.9661C12.9397 11.7582 12.7118 11.606 12.4548 11.5292C12.1979 11.4524 11.9238 11.4546 11.6682 11.5354L9.71751 12.1529L9.3771 11.8014C8.94836 11.3564 8.57319 10.8628 8.25926 10.3305C7.95524 9.79191 7.71809 9.21819 7.5531 8.62211L7.42168 8.15502L8.92585 6.76961C9.12487 6.58568 9.26448 6.34655 9.32681 6.08282C9.38915 5.81909 9.37137 5.54276 9.27576 5.28919L8.81026 4.03994ZM6.70918 1.71244C7.42034 1.49485 8.18779 1.55748 8.85426 1.88748C9.52074 2.21748 10.0358 2.78987 10.2938 3.48736L10.7578 4.73502C10.9631 5.28308 11.0004 5.87987 10.865 6.44925C10.7297 7.01862 10.4277 7.53475 9.99776 7.93177L9.22193 8.64586C9.32168 8.92136 9.45626 9.23644 9.63043 9.54202C9.8046 9.84286 10.0073 10.1168 10.1925 10.34L11.19 10.0234C11.7477 9.84729 12.3454 9.84266 12.9057 10.01C13.466 10.1774 13.9632 10.5092 14.3329 10.9623L15.1784 11.9962C15.6483 12.5708 15.8825 13.3024 15.8337 14.043C15.785 14.7837 15.4568 15.4782 14.9156 15.9862C13.3418 17.4634 10.772 18.0762 8.7881 16.4707C7.30965 15.2716 6.06448 13.8106 5.11476 12.1609C4.15463 10.5037 3.5129 8.68166 3.22268 6.78861C2.84268 4.26636 4.65243 2.34577 6.70918 1.71402" fill="#4F4F4F"/>
</svg>
