<svg width="28" height="28" viewBox="0 0 28 28" fill="none" xmlns="http://www.w3.org/2000/svg">
<circle cx="13.8283" cy="13.8273" r="10.5092" stroke="#4F4F4F" stroke-width="2.21242"/>
<path fill-rule="evenodd" clip-rule="evenodd" d="M15.1714 8.85035C15.1714 8.23941 14.6761 7.74414 14.0652 7.74414C13.4543 7.74414 12.959 8.23941 12.959 8.85035V12.959H8.85035C8.23941 12.959 7.74414 13.4543 7.74414 14.0652C7.74414 14.6761 8.23941 15.1714 8.85035 15.1714H12.959V19.2805C12.959 19.8914 13.4543 20.3867 14.0652 20.3867C14.6761 20.3867 15.1714 19.8914 15.1714 19.2805V15.1714H19.2805C19.8914 15.1714 20.3867 14.6761 20.3867 14.0652C20.3867 13.4543 19.8914 12.959 19.2805 12.959H15.1714V8.85035Z" fill="#4F4F4F"/>
</svg>
