<svg width="40" height="40" viewBox="0 0 40 40" fill="none" xmlns="http://www.w3.org/2000/svg">
<circle cx="19.9953" cy="20.0002" r="16.0858" stroke="#B5B5B5" stroke-width="1.42847"/>
<path fill-rule="evenodd" clip-rule="evenodd" d="M21.0566 12.8011C21.0566 12.4067 20.7368 12.0869 20.3423 12.0869C19.9479 12.0869 19.6281 12.4067 19.6281 12.8011V19.6296H12.7982C12.4038 19.6296 12.084 19.9494 12.084 20.3439C12.084 20.7383 12.4038 21.0581 12.7982 21.0581H19.6281V27.8858C19.6281 28.2803 19.9479 28.6 20.3423 28.6C20.7368 28.6 21.0566 28.2803 21.0566 27.8858V21.0581H27.8829C28.2773 21.0581 28.5971 20.7383 28.5971 20.3439C28.5971 19.9494 28.2773 19.6296 27.8829 19.6296H21.0566V12.8011Z" fill="#B5B5B5"/>
</svg>
