<svg width="28" height="30" viewBox="0 0 28 30" fill="none" xmlns="http://www.w3.org/2000/svg">
<path d="M21.7136 10.0093C21.5554 12.3159 19.9257 14.0928 18.1486 14.0928C16.3715 14.0928 14.7392 12.3165 14.5837 10.0093C14.4216 7.60967 16.008 5.92578 18.1486 5.92578C20.2892 5.92578 21.8757 7.65334 21.7136 10.0093Z" stroke="#4F4F4F" stroke-width="2.03269" stroke-linecap="round" stroke-linejoin="round"/>
<path d="M18.149 17.7217C14.6289 17.7217 11.2438 19.5576 10.3957 23.1329C10.2834 23.6059 10.5659 24.0738 11.0288 24.0738H25.2698C25.7327 24.0738 26.0136 23.6059 25.9029 23.1329C25.0548 19.5003 21.6697 17.7217 18.149 17.7217Z" stroke="#4F4F4F" stroke-width="2.03269" stroke-miterlimit="10"/>
<path d="M10.8029 11.0263C10.6765 12.8685 9.35962 14.3192 7.9401 14.3192C6.52059 14.3192 5.20155 12.869 5.07732 11.0263C4.94822 9.10992 6.22999 7.74023 7.9401 7.74023C9.65022 7.74023 10.932 9.14508 10.8029 11.0263Z" stroke="#4F4F4F" stroke-width="2.03269" stroke-linecap="round" stroke-linejoin="round"/>
<path d="M11.1276 17.8369C10.1527 17.3679 9.07885 17.1875 7.94076 17.1875C5.13198 17.1875 2.42584 18.6536 1.74795 21.5092C1.65882 21.887 1.88461 22.2607 2.25407 22.2607H8.31886" stroke="#4F4F4F" stroke-width="2.03269" stroke-miterlimit="10" stroke-linecap="round"/>
</svg>
