<svg width="18" height="18" viewBox="0 0 18 18" fill="none" xmlns="http://www.w3.org/2000/svg">
<path d="M9.00586 4.21875C8.39397 4.21875 7.79583 4.4002 7.28706 4.74014C6.7783 5.08009 6.38177 5.56326 6.14761 6.12857C5.91345 6.69388 5.85218 7.31593 5.97156 7.91606C6.09093 8.51619 6.38558 9.06744 6.81825 9.50011C7.25092 9.93278 7.80217 10.2274 8.4023 10.3468C9.00243 10.4662 9.62448 10.4049 10.1898 10.1708C10.7551 9.93659 11.2383 9.54006 11.5782 9.03129C11.9182 8.52253 12.0996 7.92439 12.0996 7.3125C12.0987 6.49227 11.7724 5.7059 11.1924 5.12592C10.6125 4.54593 9.82609 4.21968 9.00586 4.21875ZM9.00586 8.71875C8.72773 8.71875 8.45585 8.63627 8.22459 8.48175C7.99333 8.32723 7.81309 8.10761 7.70665 7.85065C7.60022 7.59369 7.57237 7.31094 7.62663 7.03815C7.68089 6.76537 7.81482 6.5148 8.01149 6.31813C8.20816 6.12146 8.45873 5.98753 8.73151 5.93327C9.0043 5.87901 9.28705 5.90686 9.54401 6.01329C9.80097 6.11973 10.0206 6.29997 10.1751 6.53123C10.3296 6.76249 10.4121 7.03437 10.4121 7.3125C10.4121 7.68546 10.264 8.04315 10.0002 8.30687C9.73651 8.57059 9.37882 8.71875 9.00586 8.71875ZM9.00586 0.84375C7.29081 0.845611 5.64654 1.52774 4.43382 2.74046C3.2211 3.95318 2.53897 5.59745 2.53711 7.3125C2.53711 12.7519 8.27742 16.8328 8.52211 17.0037C8.66391 17.1029 8.83279 17.1561 9.00586 17.1561C9.17893 17.1561 9.34781 17.1029 9.48961 17.0037C10.5768 16.2024 11.5715 15.2827 12.4554 14.2615C14.4305 11.9932 15.4746 9.58852 15.4746 7.3125C15.4727 5.59745 14.7906 3.95318 13.5779 2.74046C12.3652 1.52774 10.7209 0.845611 9.00586 0.84375ZM11.2066 13.128C10.5362 13.8981 9.79983 14.6082 9.00586 15.2501C8.21189 14.6082 7.4755 13.8981 6.80508 13.128C5.63086 11.7682 4.22461 9.65461 4.22461 7.3125C4.22461 6.04443 4.72835 4.8283 5.62501 3.93165C6.52166 3.03499 7.73779 2.53125 9.00586 2.53125C10.2739 2.53125 11.4901 3.03499 12.3867 3.93165C13.2834 4.8283 13.7871 6.04443 13.7871 7.3125C13.7871 9.65461 12.3809 11.7682 11.2066 13.128Z" fill="#4F4F4F"/>
</svg>
