<svg width="28" height="28" viewBox="0 0 28 28" fill="none" xmlns="http://www.w3.org/2000/svg">
<path d="M22.0531 5.03749H19.8124V3.91718C19.8124 3.62006 19.6944 3.3351 19.4843 3.12501C19.2742 2.91491 18.9893 2.79688 18.6921 2.79688C18.395 2.79688 18.1101 2.91491 17.9 3.12501C17.6899 3.3351 17.5718 3.62006 17.5718 3.91718V5.03749H10.85V3.91718C10.85 3.62006 10.7319 3.3351 10.5218 3.12501C10.3117 2.91491 10.0268 2.79688 9.72967 2.79688C9.43254 2.79688 9.14759 2.91491 8.93749 3.12501C8.72739 3.3351 8.60936 3.62006 8.60936 3.91718V5.03749H6.36874C5.47737 5.03749 4.6225 5.39159 3.99221 6.02189C3.36191 6.65218 3.00781 7.50705 3.00781 8.39842V21.8421C3.00781 22.7335 3.36191 23.5884 3.99221 24.2187C4.6225 24.849 5.47737 25.2031 6.36874 25.2031H22.0531C22.9444 25.2031 23.7993 24.849 24.4296 24.2187C25.0599 23.5884 25.414 22.7335 25.414 21.8421V8.39842C25.414 7.50705 25.0599 6.65218 24.4296 6.02189C23.7993 5.39159 22.9444 5.03749 22.0531 5.03749ZM23.1734 21.8421C23.1734 22.1393 23.0553 22.4242 22.8452 22.6343C22.6351 22.8444 22.3502 22.9624 22.0531 22.9624H6.36874C6.07161 22.9624 5.78666 22.8444 5.57656 22.6343C5.36646 22.4242 5.24843 22.1393 5.24843 21.8421V14H23.1734V21.8421ZM23.1734 11.7593H5.24843V8.39842C5.24843 8.1013 5.36646 7.81634 5.57656 7.60624C5.78666 7.39614 6.07161 7.27811 6.36874 7.27811H8.60936V8.39842C8.60936 8.69554 8.72739 8.9805 8.93749 9.1906C9.14759 9.4007 9.43254 9.51873 9.72967 9.51873C10.0268 9.51873 10.3117 9.4007 10.5218 9.1906C10.7319 8.9805 10.85 8.69554 10.85 8.39842V7.27811H17.5718V8.39842C17.5718 8.69554 17.6899 8.9805 17.9 9.1906C18.1101 9.4007 18.395 9.51873 18.6921 9.51873C18.9893 9.51873 19.2742 9.4007 19.4843 9.1906C19.6944 8.9805 19.8124 8.69554 19.8124 8.39842V7.27811H22.0531C22.3502 7.27811 22.6351 7.39614 22.8452 7.60624C23.0553 7.81634 23.1734 8.1013 23.1734 8.39842V11.7593Z" fill="#4F4F4F"/>
</svg>
