<svg width="53" height="52" viewBox="0 0 53 52" fill="none" xmlns="http://www.w3.org/2000/svg">
<rect width="52.3041" height="52" fill="#0F0F0F"/>
<path fill-rule="evenodd" clip-rule="evenodd" d="M38.5579 30.0102C40.6947 27.2242 41.9647 23.7384 41.9647 19.956C41.9647 10.8239 34.5617 3.4209 25.4296 3.4209C16.2975 3.4209 8.89453 10.8239 8.89453 19.956C8.89453 23.6551 10.1092 27.0704 12.1614 29.825L12.0876 29.8003L23.0389 47.2044C24.1771 49.0134 26.8175 49.0029 27.9413 47.1849L38.5579 30.0102ZM36.7949 19.9176C36.7949 26.1736 31.7234 31.2451 25.4674 31.2451C19.2114 31.2451 14.1399 26.1736 14.1399 19.9176C14.1399 13.6616 19.2114 8.59008 25.4674 8.59008C31.7234 8.59008 36.7949 13.6616 36.7949 19.9176Z" fill="#09F1B9"/>
<path d="M43.2586 14.0378L47.7692 15.6796L46.4075 19.421L43.4316 18.3378L29.9287 24.6303L28.2361 21.0695L43.2586 14.0378ZM24.9675 20.0916C25.4541 20.2688 25.8352 20.6193 26.0921 21.1365L28.4736 26.2404C28.6743 26.7372 28.7236 27.2424 28.5398 27.7475L28.0802 28.4276L15.1466 40.6685C14.5527 41.1938 13.775 41.2921 13.1012 41.0469C12.4462 40.8084 11.8949 40.2265 11.7963 39.4491L10.8344 31.2604L5.13487 25.3725C4.57854 24.7464 4.47995 23.969 4.71826 23.3142C4.95657 22.6595 5.53178 22.1273 6.36046 22.0053L24.0572 19.9722C24.3873 19.8805 24.668 19.9826 24.9675 20.0916ZM18.0875 23.5618L16.3144 24.3571L19.708 31.6301L21.4574 30.7838L18.0875 23.5618ZM14.4885 25.239L12.6762 26.0836L16.046 33.3056L17.8583 32.461L14.4885 25.239Z" fill="white"/>
<path d="M44.7544 17.6123C45.1714 18.5066 44.2755 19.8069 42.7534 20.5166C41.2313 21.2264 39.6593 21.0769 39.2423 20.1826C38.8253 19.2884 39.7212 17.9881 41.2433 17.2783C42.7654 16.5686 44.3374 16.7181 44.7544 17.6123Z" fill="#09F1B9"/>
<path d="M11.9156 21.5446C12.0016 22.5275 10.715 23.443 9.04195 23.5894C7.36888 23.7358 5.94288 23.0576 5.85688 22.0747C5.77088 21.0917 7.05746 20.1763 8.73054 20.0299C10.4036 19.8835 11.8296 20.5617 11.9156 21.5446Z" fill="#09F1B9"/>
</svg>
