<svg width="53" height="52" viewBox="0 0 53 52" fill="none" xmlns="http://www.w3.org/2000/svg">
<rect width="52.3041" height="52" fill="#0F0F0F"/>
<path fill-rule="evenodd" clip-rule="evenodd" d="M38.559 30.0089C40.6952 27.2232 41.9647 23.7379 41.9647 19.9562C41.9647 10.8242 34.5617 3.42114 25.4296 3.42114C16.2975 3.42114 8.89453 10.8242 8.89453 19.9562C8.89453 23.6557 10.1094 27.0714 12.162 29.8261L12.0875 29.8012L23.0387 47.2053C24.177 49.0142 26.8174 49.0037 27.9412 47.1857L38.559 30.0089ZM36.7945 19.9181C36.7945 26.1741 31.7231 31.2456 25.4671 31.2456C19.2111 31.2456 14.1396 26.1741 14.1396 19.9181C14.1396 13.6621 19.2111 8.5906 25.4671 8.5906C31.7231 8.5906 36.7945 13.6621 36.7945 19.9181Z" fill="#09F1B9"/>
<path d="M29.2767 29.7425L30.2079 30.7259L11.3521 38.2584L15.1466 39.6394L32.6394 32.9001C33.1396 33.297 33.7087 33.5041 34.4676 33.7803C39.7799 35.7138 45.4729 33.0591 47.4064 27.7469C49.3399 22.4346 46.4955 16.6725 41.373 14.8081C36.2504 12.9436 30.3676 15.5293 28.4341 20.8415C28.0198 21.9799 27.7952 23.1873 27.8294 24.274L24.4653 25.8427L23.0842 29.6371L19.2898 28.2561L17.9087 32.0505L14.1143 30.6695L11.5265 31.8761L9.45488 37.5678L29.2767 29.7425ZM41.3367 20.8108C42.6648 21.2942 43.199 22.7778 42.7847 23.9161C42.3704 25.0545 40.8177 25.7785 39.6794 25.3642C38.5411 24.9499 37.8171 23.3972 38.2314 22.2589C38.6457 21.1205 40.0086 20.3275 41.3367 20.8108Z" fill="white"/>
<path d="M14.526 30.2779C14.8378 31.1344 13.9086 32.259 12.4506 32.7897C10.9926 33.3204 9.55792 33.0562 9.24615 32.1996C8.93438 31.343 9.86359 30.2184 11.3216 29.6878C12.7796 29.1571 14.2143 29.4213 14.526 30.2779Z" fill="#09F1B9"/>
<path d="M42.6198 32.9467C42.9316 33.8033 42.0024 34.9279 40.5444 35.4585C39.0864 35.9892 37.6517 35.725 37.3399 34.8684C37.0281 34.0118 37.9573 32.8873 39.4153 32.3566C40.8733 31.8259 42.308 32.0901 42.6198 32.9467Z" fill="#09F1B9"/>
</svg>
