<svg width="53" height="52" viewBox="0 0 53 52" fill="none" xmlns="http://www.w3.org/2000/svg">
<rect width="52.3041" height="52" fill="#0F0F0F"/>
<path fill-rule="evenodd" clip-rule="evenodd" d="M38.5599 30.0092C40.6958 27.2235 41.9652 23.7385 41.9652 19.957C41.9652 10.8249 34.5622 3.42188 25.4301 3.42188C16.298 3.42188 8.89502 10.8249 8.89502 19.957C8.89502 23.6565 10.11 27.0723 12.1627 29.827L12.088 29.8021L23.0392 47.2062C24.1775 49.0151 26.8178 49.0046 27.9416 47.1866L38.5599 30.0092ZM36.7956 19.9188C36.7956 26.1748 31.7241 31.2463 25.4682 31.2463C19.2122 31.2463 14.1407 26.1748 14.1407 19.9188C14.1407 13.6628 19.2122 8.59134 25.4682 8.59134C31.7241 8.59134 36.7956 13.6628 36.7956 19.9188Z" fill="#09F1B9"/>
<path d="M38.0143 14.972L31.7222 17.2621C31.4144 17.3741 31.2243 17.6564 31.2349 17.9538C31.2628 18.7582 30.7053 19.5637 29.8311 19.8818C28.9568 20.2 28.0164 19.9532 27.5163 19.3073C27.4326 19.1928 27.3072 19.1096 27.1594 19.0704C27.0117 19.0313 26.8497 19.0384 26.6984 19.0906L8.93048 25.5576C7.44058 26.0999 6.6287 27.6238 7.11641 28.9638L11.2559 40.3368C11.7436 41.6768 13.3451 42.3223 14.835 41.7801L32.6029 35.3131C32.9108 35.201 33.1008 34.9187 33.0902 34.6213C33.0624 33.817 33.6198 33.0115 34.4941 32.6933C35.3683 32.3751 36.3087 32.6219 36.8088 33.2678C36.9918 33.5025 37.3189 33.5966 37.6267 33.4846L43.9188 31.1944C45.4087 30.6522 46.2205 29.1282 45.7328 27.7882L41.5934 16.4152C41.1057 15.0752 39.5042 14.4297 38.0143 14.972ZM33.793 30.7671C32.7217 31.157 31.4565 30.7075 31.1058 29.7439C30.7555 28.7814 31.4479 27.6573 32.5192 27.2674C33.5904 26.8775 34.7643 27.3211 35.115 28.2847C35.4653 29.2472 34.8642 30.3772 33.793 30.7671ZM31.8099 25.3185C30.7386 25.7084 29.4945 25.2709 29.1438 24.3073C28.7934 23.3447 29.4652 22.2098 30.5365 21.8199C31.6077 21.43 32.8186 21.8797 33.1689 22.8422C33.5197 23.8058 32.8811 24.9286 31.8099 25.3185Z" fill="white"/>
<path d="M18.1959 28.3101L12.9849 30.2067C12.3828 30.4259 11.7268 30.1368 11.5166 29.5593C11.3064 28.9818 11.6231 28.3386 12.2252 28.1194L17.4362 26.2228C18.0383 26.0037 18.6943 26.2928 18.9045 26.8703C19.119 27.4597 18.798 28.091 18.1959 28.3101ZM14.5837 35.7487L26.7023 31.3379C27.0877 31.1976 27.3336 30.835 27.2123 30.5399C27.1033 30.2403 26.6953 30.1156 26.2964 30.2608L14.1901 34.6672C13.7923 34.8119 13.5587 35.1701 13.6678 35.4697C13.7768 35.7692 14.1847 35.8939 14.5837 35.7487ZM15.371 37.9117L27.4896 33.5009C27.875 33.3606 28.1174 32.9882 27.9996 32.7029C27.8905 32.4033 27.4826 32.2786 27.0837 32.4238L14.9773 36.8302C14.5796 36.9749 14.346 37.3331 14.455 37.6327C14.5641 37.9322 14.972 38.0569 15.371 37.9117ZM37.3824 25.0011L40.4877 23.8708C40.9926 23.6871 41.5276 23.8965 41.6886 24.3389L42.6813 27.0664C42.8427 27.5098 42.5659 28.0135 42.0623 28.1968L38.9581 29.3267C38.8386 29.3705 38.7127 29.3931 38.5876 29.3933C38.4625 29.3935 38.3406 29.3712 38.229 29.3277C38.1174 29.2842 38.0183 29.2203 37.9373 29.1398C37.8564 29.0593 37.7952 28.9638 37.7573 28.8586L36.7649 26.1322C36.6035 25.6887 36.8804 25.185 37.384 25.0017" fill="#07C093"/>
<path d="M12.4243 23.8721C12.7617 24.7993 11.7559 26.0166 10.1778 26.591C8.59958 27.1654 7.04665 26.8794 6.70918 25.9522C6.37171 25.0251 7.37751 23.8078 8.95569 23.2334C10.5339 22.659 12.0868 22.9449 12.4243 23.8721Z" fill="#09F1B9"/>
<path d="M43.9121 30.9444C44.2495 31.8716 43.2437 33.0888 41.6656 33.6633C40.0874 34.2377 38.5344 33.9517 38.197 33.0245C37.8595 32.0973 38.8653 30.8801 40.4435 30.3056C42.0217 29.7312 43.5746 30.0172 43.9121 30.9444Z" fill="#09F1B9"/>
</svg>
