<svg width="30" height="30" viewBox="0 0 30 30" fill="none" xmlns="http://www.w3.org/2000/svg">
<path d="M21 3H9C5.68629 3 3 5.68629 3 9V21C3 24.3137 5.68629 27 9 27H21C24.3137 27 27 24.3137 27 21V9C27 5.68629 24.3137 3 21 3Z" stroke="white" stroke-width="2.4" stroke-linecap="round" stroke-linejoin="round"/>
<path d="M21.6 8.40039H21.612M19.8 14.2444C19.9481 15.2431 19.7775 16.263 19.3125 17.1592C18.8476 18.0554 18.1118 18.7821 17.21 19.236C16.3082 19.6899 15.2862 19.8479 14.2894 19.6875C13.2926 19.5271 12.3718 19.0565 11.6578 18.3426C10.9439 17.6287 10.4733 16.7078 10.3129 15.711C10.1525 14.7143 10.3105 13.6923 10.7644 12.7904C11.2183 11.8886 11.9451 11.1529 12.8412 10.6879C13.7374 10.2229 14.7573 10.0523 15.756 10.2004C16.7747 10.3515 17.7179 10.8261 18.4461 11.5544C19.1743 12.2826 19.649 13.2257 19.8 14.2444Z" stroke="white" stroke-width="2.4" stroke-linecap="round" stroke-linejoin="round"/>
</svg>
