<svg width="34" height="34" viewBox="0 0 34 34" fill="none" xmlns="http://www.w3.org/2000/svg">
<path d="M16.7998 3C14.9613 3 13.1408 3.36212 11.4422 4.06569C9.74368 4.76925 8.20033 5.80048 6.90031 7.1005C4.2748 9.72601 2.7998 13.287 2.7998 17C2.7998 23.188 6.8178 28.438 12.3758 30.3C13.0758 30.412 13.2998 29.978 13.2998 29.6V27.234C9.4218 28.074 8.5958 25.358 8.5958 25.358C7.9518 23.734 7.0418 23.3 7.0418 23.3C5.7678 22.432 7.1398 22.46 7.1398 22.46C8.5398 22.558 9.2818 23.902 9.2818 23.902C10.4998 26.03 12.5578 25.4 13.3558 25.064C13.4818 24.154 13.8458 23.538 14.2378 23.188C11.1298 22.838 7.8678 21.634 7.8678 16.3C7.8678 14.746 8.3998 13.5 9.3098 12.506C9.1698 12.156 8.6798 10.7 9.4498 8.81C9.4498 8.81 10.6258 8.432 13.2998 10.238C14.4058 9.93 15.6098 9.776 16.7998 9.776C17.9898 9.776 19.1938 9.93 20.2998 10.238C22.9738 8.432 24.1498 8.81 24.1498 8.81C24.9198 10.7 24.4298 12.156 24.2898 12.506C25.1998 13.5 25.7318 14.746 25.7318 16.3C25.7318 21.648 22.4558 22.824 19.3338 23.174C19.8378 23.608 20.2998 24.462 20.2998 25.764V29.6C20.2998 29.978 20.5238 30.426 21.2378 30.3C26.7958 28.424 30.7998 23.188 30.7998 17C30.7998 15.1615 30.4377 13.341 29.7341 11.6424C29.0306 9.94387 27.9993 8.40052 26.6993 7.1005C25.3993 5.80048 23.8559 4.76925 22.1574 4.06569C20.4588 3.36212 18.6383 3 16.7998 3Z" fill="white"/>
</svg>
