<svg width="629" height="612" viewBox="0 0 629 612" fill="none" xmlns="http://www.w3.org/2000/svg">
<path fill-rule="evenodd" clip-rule="evenodd" d="M507.207 358.725C535.302 322.083 552 276.241 552 226.5C552 106.378 454.622 9 334.5 9C214.378 9 117 106.378 117 226.5C117 275.163 132.981 320.093 159.981 356.328L159 356L303.051 584.931C318.023 608.726 352.755 608.587 367.537 584.673L507.207 358.725ZM484 226C484 308.29 417.29 375 335 375C252.71 375 186 308.29 186 226C186 143.71 252.71 77 335 77C417.29 77 484 143.71 484 226Z" fill="#09F1B9"/>
<path d="M569.02 148.658L628.353 170.253L610.44 219.468L571.296 205.22L393.681 287.99L371.417 241.151L569.02 148.658ZM328.422 228.289C334.823 230.619 339.836 235.23 343.215 242.033L374.541 309.169C377.181 315.703 377.829 322.349 375.411 328.993L369.367 337.939L199.239 498.954C191.427 505.864 181.198 507.157 172.335 503.931C163.718 500.795 156.468 493.139 155.171 482.914L142.517 375.201L67.547 297.753C60.2291 289.516 58.9323 279.291 62.067 270.679C65.2017 262.066 72.7679 255.066 83.6683 253.461L316.448 226.718C320.79 225.511 324.483 226.855 328.422 228.289ZM237.924 273.935L214.601 284.396L259.24 380.064L282.251 368.932L237.924 273.935ZM190.583 295.997L166.744 307.106L211.07 402.103L234.909 390.994L190.583 295.997Z" fill="white"/>
<path d="M588.702 195.677C594.187 207.44 582.403 224.544 562.381 233.88C542.359 243.216 521.682 241.249 516.197 229.486C510.712 217.724 522.496 200.62 542.518 191.284C562.54 181.947 583.217 183.914 588.702 195.677Z" fill="#09F1B9"/>
<path d="M156.744 247.411C157.875 260.34 140.951 272.382 118.944 274.307C96.9368 276.233 78.1793 267.312 77.0482 254.383C75.917 241.454 92.8405 229.412 114.848 227.486C136.855 225.561 155.613 234.481 156.744 247.411Z" fill="#09F1B9"/>
</svg>
