<svg width="37" height="36" viewBox="0 0 37 36" fill="none" xmlns="http://www.w3.org/2000/svg">
<path d="M18.6005 4.5C27.3006 4.5 34.3521 9.996 34.3521 16.7775C34.3521 23.5575 27.3006 29.0535 18.6021 29.0535C17.736 29.052 16.8708 28.9969 16.0116 28.8885L9.39955 33.213C8.64805 33.6105 8.38255 33.567 8.69155 32.5935L10.0296 27.0765C5.70955 24.8865 2.85205 21.0915 2.85205 16.7775C2.85205 9.9975 9.90205 4.5 18.6021 4.5M27.4641 16.59L29.6691 14.454C29.7963 14.3219 29.8673 14.1455 29.867 13.9621C29.8668 13.7786 29.7954 13.6024 29.6679 13.4706C29.5403 13.3388 29.3666 13.2616 29.1832 13.2553C28.9999 13.2491 28.8213 13.3142 28.6851 13.437L25.7931 16.236V13.923C25.7931 13.7352 25.7185 13.5551 25.5857 13.4224C25.4529 13.2896 25.2728 13.215 25.0851 13.215C24.8973 13.215 24.7172 13.2896 24.5844 13.4224C24.4516 13.5551 24.3771 13.7352 24.3771 13.923V17.7585C24.3521 17.8681 24.3521 17.9819 24.3771 18.0915V20.25C24.3771 20.4378 24.4516 20.6179 24.5844 20.7506C24.7172 20.8834 24.8973 20.958 25.0851 20.958C25.2728 20.958 25.4529 20.8834 25.5857 20.7506C25.7185 20.6179 25.7931 20.4378 25.7931 20.25V18.2055L26.4335 17.586L28.5756 20.6355C28.629 20.7116 28.697 20.7765 28.7755 20.8264C28.8541 20.8762 28.9417 20.9101 29.0333 20.9262C29.125 20.9422 29.2189 20.94 29.3097 20.9197C29.4005 20.8994 29.4864 20.8615 29.5626 20.808C29.6387 20.7545 29.7035 20.6866 29.7534 20.608C29.8033 20.5295 29.8372 20.4419 29.8532 20.3502C29.8692 20.2586 29.867 20.1647 29.8468 20.0739C29.8265 19.9831 29.7885 19.8971 29.7351 19.821L27.4641 16.59ZM23.0271 19.476H20.8371V13.9455C20.8287 13.7636 20.7505 13.5918 20.6188 13.4661C20.4871 13.3403 20.3119 13.2701 20.1298 13.2701C19.9477 13.2701 19.7725 13.3403 19.6408 13.4661C19.5091 13.5918 19.4309 13.7636 19.4226 13.9455V20.184C19.4226 20.574 19.7376 20.892 20.1291 20.892H23.0271C23.2148 20.892 23.3949 20.8174 23.5277 20.6846C23.6605 20.5519 23.7351 20.3718 23.7351 20.184C23.7351 19.9962 23.6605 19.8161 23.5277 19.6834C23.3949 19.5506 23.2148 19.476 23.0271 19.476ZM14.2416 17.8395L15.2856 15.2775L16.2426 17.838L14.2416 17.8395ZM18.026 18.57L18.0291 18.546C18.0285 18.3677 17.9605 18.1961 17.8385 18.066L16.2696 13.866C16.2038 13.6659 16.0785 13.4905 15.9104 13.3635C15.7424 13.2364 15.5395 13.1637 15.3291 13.155C15.1172 13.1549 14.9103 13.2189 14.7355 13.3386C14.5606 13.4582 14.4261 13.628 14.3496 13.8255L11.8566 19.938C11.7855 20.1118 11.7865 20.3068 11.8592 20.4799C11.9319 20.6531 12.0705 20.7902 12.2443 20.8612C12.4181 20.9323 12.6131 20.9313 12.7862 20.8586C12.9594 20.7859 13.0965 20.6474 13.1676 20.4735L13.6656 19.254H16.7705L17.2176 20.454C17.248 20.5437 17.2962 20.6264 17.3592 20.6971C17.4223 20.7678 17.4989 20.8252 17.5844 20.8658C17.67 20.9064 17.7629 20.9294 17.8576 20.9335C17.9522 20.9375 18.0467 20.9225 18.1355 20.8894C18.2242 20.8563 18.3054 20.8057 18.3743 20.7406C18.4431 20.6755 18.4982 20.5973 18.5363 20.5105C18.5743 20.4237 18.5946 20.3302 18.5958 20.2355C18.5971 20.1408 18.5793 20.0467 18.5436 19.959L18.026 18.57ZM13.0416 13.953C13.0419 13.86 13.024 13.7679 12.9886 13.6819C12.9533 13.596 12.9013 13.5178 12.8356 13.452C12.7699 13.3862 12.6919 13.334 12.606 13.2985C12.5201 13.263 12.428 13.2448 12.3351 13.245H7.46755C7.27978 13.245 7.09969 13.3196 6.96692 13.4524C6.83414 13.5851 6.75955 13.7652 6.75955 13.953C6.75955 14.1408 6.83414 14.3209 6.96692 14.4536C7.09969 14.5864 7.27978 14.661 7.46755 14.661H9.20755V20.265C9.20755 20.4528 9.28214 20.6329 9.41492 20.7656C9.54769 20.8984 9.72778 20.973 9.91555 20.973C10.1033 20.973 10.2834 20.8984 10.4162 20.7656C10.549 20.6329 10.6236 20.4528 10.6236 20.265V14.661H12.3336C12.4266 14.6614 12.5189 14.6434 12.605 14.6079C12.691 14.5725 12.7692 14.5203 12.8351 14.4545C12.9009 14.3887 12.953 14.3105 12.9885 14.2244C13.0239 14.1383 13.0419 14.0461 13.0416 13.953Z" fill="white"/>
</svg>
