<svg width="79" height="57" viewBox="0 0 79 57" fill="none" xmlns="http://www.w3.org/2000/svg">
<circle cx="39.4951" cy="14.4997" r="11.6622" stroke="#828282" stroke-width="1.03561"/>
<path fill-rule="evenodd" clip-rule="evenodd" d="M40.267 9.27989C40.267 8.99391 40.0352 8.76208 39.7492 8.76208C39.4632 8.76208 39.2314 8.99391 39.2314 9.27989V14.2304H34.2796C33.9937 14.2304 33.7618 14.4622 33.7618 14.7482C33.7618 15.0341 33.9937 15.266 34.2796 15.266H39.2314V20.2163C39.2314 20.5022 39.4632 20.7341 39.7492 20.7341C40.0352 20.7341 40.267 20.5022 40.267 20.2163V15.266H45.216C45.502 15.266 45.7338 15.0341 45.7338 14.7482C45.7338 14.4622 45.502 14.2304 45.216 14.2304H40.267V9.27989Z" fill="#828282"/>
<path d="M25.9648 47.0449V48.0117H20.5889V52.2158H19.4609V48.0117H14.0996V47.0449H25.9648ZM20.6035 41.7422C20.6035 43.3682 22.874 44.7891 25.2031 45.1113L24.7783 46.0342C22.7642 45.7266 20.8672 44.7158 20.0469 43.2949C19.2119 44.7305 17.2856 45.7266 15.2715 46.0342L14.8467 45.1113C17.1611 44.7891 19.4609 43.3828 19.4609 41.7422V41.7275H15.2568V40.79H19.4609V39.1641H20.5889V40.79H24.8223V41.7275H20.6035V41.7422ZM37.1416 39.1641V44.4668H39.251V45.4336H37.1416V52.1865H35.999V39.1641H37.1416ZM33.7725 40.5703C33.7725 44.2617 32.0439 47.6162 27.7959 49.7109L27.1514 48.8027C30.5205 47.1255 32.3516 44.6206 32.6152 41.5371H27.752V40.5703H33.7725ZM50.1055 39.1641V44.54H52.2881V45.4922H50.1055V52.1865H48.9629V39.1641H50.1055ZM47.7031 41.2588V42.2109H39.9541V41.2588H43.3086V39.3252H44.4512V41.2588H47.7031ZM43.8945 43.2949C45.7402 43.2949 47.0732 44.5254 47.0879 46.2832C47.0732 48.041 45.7402 49.2715 43.8945 49.2715C42.0342 49.2715 40.6865 48.041 40.7012 46.2832C40.6865 44.5254 42.0342 43.2949 43.8945 43.2949ZM43.8945 44.2617C42.6787 44.2617 41.7852 45.1113 41.7998 46.2832C41.7852 47.4697 42.6787 48.3047 43.8945 48.29C45.0957 48.3047 45.9746 47.4697 45.9893 46.2832C45.9746 45.1113 45.0957 44.2617 43.8945 44.2617ZM63.7578 39.1641V52.1865H62.6006V39.1641H63.7578ZM59.9053 40.585C59.8906 44.335 58.1475 47.6455 53.7822 49.7402L53.1523 48.8027C56.6753 47.1328 58.4697 44.6353 58.7334 41.5225H53.7529V40.585H59.9053Z" fill="#828282"/>
</svg>
