<svg width="45" height="45" viewBox="0 0 45 45" fill="none" xmlns="http://www.w3.org/2000/svg">
<path d="M14.475 30.855L17.7769 29.9025L37.6575 9.78377C37.8143 9.62307 37.9016 9.40714 37.9006 9.18262C37.8995 8.95809 37.8102 8.74299 37.6519 8.58377L36.4613 7.38002C36.3843 7.30096 36.2924 7.23802 36.1909 7.19487C36.0893 7.15173 35.9802 7.12924 35.8699 7.12871C35.7596 7.12819 35.6503 7.14964 35.5484 7.19182C35.4464 7.23401 35.3539 7.29607 35.2762 7.37439L15.4481 27.4406L14.475 30.855ZM38.8181 4.99502L40.0087 6.20064C41.6512 7.86377 41.6662 10.5469 40.0387 12.1931L19.5525 32.9269L12.495 34.9594C12.0641 35.08 11.603 35.0247 11.2128 34.8057C10.8226 34.5867 10.5352 34.2219 10.4137 33.7913C10.3233 33.4817 10.322 33.1528 10.41 32.8425L12.4631 25.6425L32.895 4.96314C33.2835 4.57194 33.746 4.26201 34.2556 4.05143C34.7651 3.84085 35.3115 3.73383 35.8629 3.73663C36.4142 3.73942 36.9595 3.85196 37.4668 4.06769C37.9742 4.28342 38.4336 4.5999 38.8181 4.99502ZM17.22 7.15689C18.15 7.15689 18.9037 7.92002 18.9037 8.86127C18.9052 9.08377 18.8628 9.30438 18.779 9.51049C18.6952 9.7166 18.5715 9.90416 18.4151 10.0625C18.2588 10.2207 18.0727 10.3467 17.8677 10.433C17.6626 10.5193 17.4425 10.5644 17.22 10.5656H10.485C8.625 10.5656 7.1175 12.0919 7.1175 13.9725V34.4213C7.1175 36.3038 8.625 37.83 10.485 37.83H30.69C32.55 37.83 34.0594 36.3038 34.0594 34.4213V27.6056C34.0594 26.6644 34.8131 25.9013 35.7431 25.9013C36.6731 25.9013 37.4269 26.6644 37.4269 27.6075V34.4213C37.4269 38.1863 34.41 41.2388 30.69 41.2388H10.485C6.765 41.2388 3.75 38.1863 3.75 34.4213V13.9725C3.75 10.2094 6.765 7.15689 10.485 7.15689H17.22Z" fill="#07C093"/>
</svg>
