<svg width="261" height="183" viewBox="0 0 261 183" fill="none" xmlns="http://www.w3.org/2000/svg">
<rect x="1.05469" y="0.5" width="259.446" height="181.595" rx="17.5" fill="white"/>
<rect x="1.05469" y="0.5" width="259.446" height="181.595" rx="17.5" stroke="#B5B5B5" stroke-linecap="round" stroke-linejoin="round" stroke-dasharray="6.04 6.04"/>
<circle cx="130.772" cy="91.2977" r="11.3844" stroke="#B5B5B5" stroke-width="1.01098"/>
<path fill-rule="evenodd" clip-rule="evenodd" d="M131.526 86.2023C131.526 85.9231 131.299 85.6968 131.02 85.6968C130.741 85.6968 130.515 85.9231 130.515 86.2023V91.035H125.681C125.402 91.035 125.175 91.2613 125.175 91.5405C125.175 91.8197 125.402 92.046 125.681 92.046H130.515V96.8782C130.515 97.1573 130.741 97.3837 131.02 97.3837C131.299 97.3837 131.526 97.1573 131.526 96.8782V92.046H136.357C136.636 92.046 136.862 91.8197 136.862 91.5405C136.862 91.2613 136.636 91.035 136.357 91.035H131.526V86.2023Z" fill="#B5B5B5"/>
</svg>
