<svg width="261" height="184" viewBox="0 0 261 184" fill="none" xmlns="http://www.w3.org/2000/svg">
<rect x="0.5" y="1.20776" width="259.446" height="181.595" rx="17.5" fill="white"/>
<rect x="0.5" y="1.20776" width="259.446" height="181.595" rx="17.5" stroke="#B5B5B5" stroke-linecap="round" stroke-linejoin="round" stroke-dasharray="6.04 6.04"/>
<path d="M99.2295 99.5785V110.865H98.2266V99.5785H99.2295ZM95.8907 100.81C95.878 104.06 94.3672 106.929 90.584 108.745L90.0381 107.932C93.0914 106.485 94.6465 104.32 94.875 101.622H90.5586V100.81H95.8907ZM110.465 99.5785V110.865H109.462V99.5785H110.465ZM107.126 100.81C107.113 104.06 105.603 106.929 101.819 108.745L101.273 107.932C104.327 106.485 105.882 104.32 106.11 101.622H101.794V100.81H107.126ZM122.043 99.5785V110.865H121.078V99.5785H122.043ZM119.771 99.8197V110.293H118.818V104.809H117.371C117.263 107.005 116.33 108.376 114.934 108.376C113.461 108.376 112.509 106.853 112.509 104.454C112.509 102.054 113.461 100.531 114.934 100.531C116.305 100.531 117.231 101.857 117.358 103.984H118.818V99.8197H119.771ZM114.934 101.47C114.02 101.47 113.436 102.613 113.448 104.454C113.436 106.282 114.02 107.437 114.934 107.424C115.848 107.437 116.432 106.282 116.432 104.454C116.432 102.613 115.848 101.47 114.934 101.47ZM127.578 102.613C127.578 104.657 128.886 106.713 130.523 107.462L129.927 108.275C128.645 107.615 127.585 106.263 127.083 104.657C126.582 106.345 125.522 107.792 124.239 108.478L123.592 107.678C125.242 106.866 126.563 104.695 126.563 102.613V100.556H127.578V102.613ZM132.961 99.5785V110.89H131.971V104.25H129.292V103.438H131.971V99.5785H132.961ZM141.213 100.112C142.73 100.099 143.879 100.981 144.095 102.283H146.456V99.5785H147.459V105.634H146.456V103.108H144.107C143.904 104.441 142.743 105.33 141.213 105.33C139.499 105.33 138.28 104.263 138.28 102.714C138.28 101.178 139.499 100.099 141.213 100.112ZM141.213 100.962C140.058 100.95 139.232 101.673 139.232 102.714C139.232 103.743 140.058 104.492 141.213 104.492C142.356 104.492 143.168 103.743 143.168 102.714C143.168 101.673 142.356 100.95 141.213 100.962ZM141.188 106.205V107.64H146.456V106.205H147.459V110.712H140.185V106.205H141.188ZM141.188 109.9H146.456V108.44H141.188V109.9ZM159.672 108.63V109.468H149.338V108.63H153.984V106.497H150.633V103.019H157.387V101.242H150.607V100.416H158.364V103.831H151.623V105.672H158.631V106.497H154.962V108.63H159.672ZM169.689 105.012V105.837H161.894V100.632H169.574V101.457H162.884V105.012H169.689ZM170.907 108.491V109.329H160.573V108.491H170.907Z" fill="#0F0F0F"/>
<path d="M89.4415 111.912H171.352V112.794H89.4415V111.912Z" fill="#0F0F0F"/>
<path d="M81.7491 78.6487C81.7344 80.9778 83.0821 83.3509 85.045 84.303L84.1807 85.4163C82.7525 84.6765 81.6465 83.2044 81.0752 81.4466C80.482 83.3216 79.3321 84.8889 77.8379 85.6653L76.9737 84.5374C78.9952 83.5706 80.3575 81.0511 80.3575 78.6487V76.4075H81.7491V78.6487ZM87.418 75.3089V80.5384H89.5274V81.7249H87.418V88.4339H86.0264V75.3089H87.418ZM95.0206 78.0481C95.0206 79.7473 96.2803 81.344 98.3018 81.9886L97.584 83.0725C96.0752 82.5745 94.9327 81.5418 94.3467 80.2307C93.7535 81.659 92.5889 82.7869 91.0215 83.3362L90.3038 82.2376C92.3399 81.5491 93.5997 79.8499 93.6143 78.0481V77.4768H90.67V76.3489H97.9063V77.4768H95.0206V78.0481ZM101.041 75.3235V84.9036H99.6495V75.3235H101.041ZM101.437 87.0276V88.1555H92.4571V83.9954H93.8633V87.0276H101.437ZM109.098 75.5286C112.057 75.5286 113.785 76.3196 113.785 77.7845C113.785 79.2493 112.057 80.055 109.098 80.055C106.139 80.055 104.41 79.2493 104.41 77.7845C104.41 76.3196 106.139 75.5286 109.098 75.5286ZM109.098 76.554C107.003 76.554 105.846 77.0081 105.86 77.7845C105.846 78.5901 107.003 79.0149 109.098 79.0149C111.192 79.0149 112.35 78.5901 112.35 77.7845C112.35 77.0081 111.192 76.554 109.098 76.554ZM115.089 80.8606V81.9739H103.121V80.8606H115.089ZM113.58 82.9846V86.0608H105.934V87.2327H113.946V88.302H104.571V85.0501H112.203V84.0247H104.557V82.9846H113.58ZM131.715 83.219V84.3616H126.412V88.4485H125.035V84.3616H119.747V83.219H131.715ZM130.572 76.8909V78.0188H126.427C126.507 79.469 128.485 80.8826 130.982 81.1975L130.484 82.3108C128.375 82.0179 126.581 81.0291 125.738 79.6888C124.881 81.0437 123.072 82.0179 120.963 82.3108L120.45 81.1975C122.948 80.8826 124.94 79.4983 125.035 78.0188H120.875V76.8909H125.035V75.3089H126.412V76.8909H130.572ZM142.936 75.3089V80.5384H144.972V81.6956H142.936V88.4192H141.544V75.3089H142.936ZM139.508 76.6858C139.493 80.4798 137.823 83.8636 133.502 86.0022L132.726 84.9182C136.014 83.2776 137.801 80.9046 138.087 77.843H133.385V76.6858H139.508ZM155.899 75.3089V80.6263H158.009V81.7835H155.899V88.4339H154.523V75.3089H155.899ZM153.38 77.3596V78.5022H145.602V77.3596H148.839V75.4846H150.231V77.3596H153.38ZM149.542 79.469C151.417 79.469 152.794 80.7288 152.809 82.5159C152.794 84.3177 151.417 85.5628 149.542 85.5774C147.652 85.5628 146.275 84.3177 146.275 82.5159C146.275 80.7288 147.652 79.469 149.542 79.469ZM149.542 80.6116C148.429 80.6116 147.594 81.388 147.608 82.5159C147.594 83.6585 148.429 84.4202 149.542 84.4055C150.655 84.4202 151.476 83.6585 151.476 82.5159C151.476 81.388 150.655 80.6116 149.542 80.6116ZM162.638 78.8977C162.638 80.9925 163.517 83.2337 165.274 84.303L164.498 85.3723C163.268 84.6326 162.433 83.3216 161.993 81.7981C161.502 83.468 160.602 84.8889 159.327 85.6653L158.463 84.6253C160.323 83.512 161.29 81.1975 161.29 78.9563V76.51H162.638V78.8977ZM169.933 75.3089V88.4339H168.6V75.3089H169.933ZM167.208 75.5579V87.7893H165.89V81.0804H163.854V79.9231H165.89V75.5579H167.208ZM183.614 85.636V86.7932H171.603V85.636H174.474V82.2083C173.397 81.615 172.745 80.6702 172.745 79.4983C172.745 77.4329 174.767 76.0706 177.579 76.0706C180.406 76.0706 182.428 77.4329 182.428 79.4983C182.428 80.6555 181.798 81.5857 180.743 82.179V85.636H183.614ZM177.579 77.1839C175.514 77.1839 174.093 78.0774 174.093 79.4983C174.093 80.9046 175.514 81.8274 177.579 81.8274C179.63 81.8274 181.08 80.9046 181.08 79.4983C181.08 78.0774 179.63 77.1839 177.579 77.1839ZM175.851 85.636H179.337V82.7063C178.802 82.8455 178.209 82.9114 177.579 82.9114C176.964 82.9114 176.378 82.8455 175.851 82.721V85.636Z" fill="#0F0F0F"/>
</svg>
