<svg width="261" height="183" viewBox="0 0 261 183" fill="none" xmlns="http://www.w3.org/2000/svg">
<rect x="0.5" y="0.5" width="259.446" height="181.595" rx="17.5" fill="white"/>
<rect x="0.5" y="0.5" width="259.446" height="181.595" rx="17.5" stroke="#B5B5B5" stroke-linecap="round" stroke-linejoin="round" stroke-dasharray="6.04 6.04"/>
<path fill-rule="evenodd" clip-rule="evenodd" d="M131.075 70.203C131.075 69.827 130.77 69.5221 130.394 69.5221C130.018 69.5221 129.713 69.827 129.713 70.203V76.7127H123.202C122.826 76.7127 122.521 77.0175 122.521 77.3936C122.521 77.7696 122.826 78.0745 123.202 78.0745H129.713V84.5836C129.713 84.9597 130.018 85.2645 130.394 85.2645C130.77 85.2645 131.075 84.9597 131.075 84.5836V78.0745H137.583C137.959 78.0745 138.263 77.7696 138.263 77.3936C138.263 77.0175 137.959 76.7127 137.583 76.7127H131.075V70.203Z" fill="#B5B5B5"/>
<path d="M118.12 99.6577V100.496H113.943V106.247C115.975 106.247 117.32 106.177 118.882 105.878L119.009 106.704C117.346 107.021 115.975 107.097 113.804 107.097H112.94V99.6577H118.12ZM121.738 98.5786V109.89H120.735V103.517H117.447V102.692H120.735V98.5786H121.738ZM137.15 105.409V106.247H132.491V109.89H131.514V106.247H126.867V105.409H137.15ZM132.504 100.813C132.504 102.222 134.472 103.454 136.49 103.733L136.122 104.533C134.377 104.266 132.732 103.39 132.022 102.159C131.298 103.403 129.628 104.266 127.883 104.533L127.515 103.733C129.521 103.454 131.514 102.235 131.514 100.813V100.8H127.87V99.9878H131.514V98.5786H132.491V99.9878H136.16V100.8H132.504V100.813ZM146.837 98.5786V103.174H148.665V104.012H146.837V109.865H145.847V98.5786H146.837ZM143.917 99.7974C143.917 102.997 142.419 105.904 138.737 107.719L138.179 106.932C141.099 105.479 142.686 103.308 142.914 100.635H138.699V99.7974H143.917Z" fill="#B5B5B5"/>
</svg>
