<svg width="25" height="26" viewBox="0 0 25 26" fill="none" xmlns="http://www.w3.org/2000/svg">
<path d="M5.63619 24.0022H19.3741C20.8599 24.0022 21.7286 23.1647 21.7286 21.6897V12.1366L23.0782 13.3714C23.2978 13.5808 23.5384 13.7272 23.8317 13.7272C24.3232 13.7272 24.721 13.4237 24.721 12.9214C24.721 12.6076 24.6058 12.4089 24.4072 12.2308L20.7764 8.91384V2.75178C20.7764 2.29151 20.4835 1.99866 20.0232 1.99866H18.6527C18.2023 1.99866 17.8884 2.29151 17.8884 2.75178V6.28839L13.7554 2.52142C13.3893 2.1866 12.95 1.99866 12.5 1.99866C12.05 1.99866 11.6107 2.1866 11.2442 2.52142L0.592892 12.2308C0.404499 12.4089 0.279053 12.6076 0.279053 12.9214C0.279053 13.4237 0.676374 13.7272 1.16834 13.7272C1.47191 13.7272 1.71253 13.5808 1.92191 13.3714L3.27146 12.1473V21.6897C3.27146 23.1647 4.13977 24.0022 5.63619 24.0022ZM5.992 22.3174C5.32236 22.3174 4.95628 21.9513 4.95628 21.271V10.6094L12.134 4.06964C12.2384 3.96518 12.3639 3.90223 12.5 3.90223C12.6362 3.90223 12.7616 3.95446 12.8768 4.06964L20.0442 10.6094V21.271C20.0442 21.9513 19.688 22.3174 19.0188 22.3174H5.992ZM15.2831 12.8692C15.796 12.7437 15.9424 12.6281 15.9424 12.0219V9.93973C15.9424 9.54196 15.8063 9.37455 15.2416 9.5L12.1549 10.2638C11.6317 10.4 11.5166 10.5049 11.5166 11.1321V15.8933C11.5166 16.3638 11.4853 16.4478 10.9407 16.5942L9.96789 16.8558C9.01566 17.1067 8.2103 17.6719 8.2103 18.7076C8.2103 19.6076 8.87994 20.2562 9.94691 20.2562C11.4536 20.2562 12.4791 19.1786 12.4791 17.6402V14.0098C12.4791 13.6125 12.563 13.5179 12.8036 13.4656L15.2831 12.8692Z" fill="#4F4F4F"/>
</svg>
