<svg width="108" height="35" viewBox="0 0 108 35" fill="none" xmlns="http://www.w3.org/2000/svg">
<rect x="0.5" y="0.5" width="107" height="34" rx="16.5" fill="#0F0F0F"/>
<rect x="0.5" y="0.5" width="107" height="34" rx="16.5" stroke="#09F1B9"/>
<path d="M20.6953 15.0293C20.6816 17.2031 21.9395 19.418 23.7715 20.3066L22.9648 21.3457C21.6318 20.6553 20.5996 19.2812 20.0664 17.6406C19.5127 19.3906 18.4395 20.8535 17.0449 21.5781L16.2383 20.5254C18.125 19.623 19.3965 17.2715 19.3965 15.0293V12.9375H20.6953V15.0293ZM25.9863 11.9121V16.793H27.9551V17.9004H25.9863V24.1621H24.6875V11.9121H25.9863ZM33.082 14.4688C33.082 16.0547 34.2578 17.5449 36.1445 18.1465L35.4746 19.1582C34.0664 18.6934 33 17.7295 32.4531 16.5059C31.8994 17.8389 30.8125 18.8916 29.3496 19.4043L28.6797 18.3789C30.5801 17.7363 31.7559 16.1504 31.7695 14.4688V13.9355H29.0215V12.8828H35.7754V13.9355H33.082V14.4688ZM38.7012 11.9258V20.8672H37.4023V11.9258H38.7012ZM39.0703 22.8496V23.9023H30.6895V20.0195H32.002V22.8496H39.0703ZM55.2441 17.668V18.7344H44.0605V17.668H55.2441ZM53.9453 15.5488V16.6016H45.4551V12.3496H53.8633V13.416H46.7402V15.5488H53.9453ZM49.6387 19.6914C52.2773 19.6914 53.8633 20.498 53.8633 21.9199C53.8633 23.3418 52.2773 24.1484 49.6387 24.1348C46.9863 24.1484 45.3867 23.3418 45.3867 21.9199C45.3867 20.498 46.9863 19.6914 49.6387 19.6914ZM49.6387 20.6895C47.7656 20.7031 46.6992 21.1406 46.6992 21.9199C46.6992 22.6992 47.7656 23.1367 49.6387 23.1367C51.4844 23.1367 52.5645 22.6992 52.5645 21.9199C52.5645 21.1406 51.4844 20.7031 49.6387 20.6895ZM67.3574 18.5977V19.6504H56.1465V18.5977H61.1094V17.4355H57.582V14.3184H64.6504V13.2246H57.5547V12.1992H65.9492V15.2754H58.8672V16.4238H66.1953V17.4355H62.3945V18.5977H67.3574ZM66.0176 20.5117V24.0664H64.7051V21.5508H57.4043V20.5117H66.0176ZM77.8027 11.9121V16.875H79.7715V17.9551H77.8027V24.1621H76.5176V11.9121H77.8027ZM75.4512 13.8262V14.8926H68.1914V13.8262H71.2129V12.0762H72.5117V13.8262H75.4512ZM71.8691 15.7949C73.6191 15.7949 74.9043 16.9707 74.918 18.6387C74.9043 20.3203 73.6191 21.4824 71.8691 21.4961C70.1055 21.4824 68.8203 20.3203 68.8203 18.6387C68.8203 16.9707 70.1055 15.7949 71.8691 15.7949ZM71.8691 16.8613C70.8301 16.8613 70.0508 17.5859 70.0645 18.6387C70.0508 19.7051 70.8301 20.416 71.8691 20.4023C72.9082 20.416 73.6738 19.7051 73.6738 18.6387C73.6738 17.5859 72.9082 16.8613 71.8691 16.8613ZM90.5449 11.9121V24.1621H89.2324V11.9121H90.5449ZM86.8945 13.2246C86.8945 16.8066 85.3633 19.9238 81.166 21.9336L80.4824 20.8809C83.7432 19.3291 85.3291 17.1211 85.582 14.2637H81.0703V13.2246H86.8945Z" fill="#09F1B9"/>
</svg>
