<svg width="66" height="66" viewBox="0 0 66 66" fill="none" xmlns="http://www.w3.org/2000/svg">
<rect width="65.9772" height="65.9772" rx="32.9886" fill="#0F0F0F"/>
<path d="M30.5616 19.6426C28.4018 19.6426 26.2904 20.2831 24.4945 21.483C22.6986 22.683 21.2989 24.3885 20.4724 26.384C19.6458 28.3795 19.4296 30.5752 19.851 32.6936C20.2723 34.8119 21.3124 36.7578 22.8397 38.2851C24.3669 39.8123 26.3128 40.8524 28.4311 41.2738C30.5495 41.6951 32.7453 41.4789 34.7407 40.6523C36.7362 39.8258 38.4417 38.4261 39.6417 36.6302C40.8417 34.8343 41.4821 32.723 41.4821 30.5631C41.482 27.6668 40.3313 24.8893 38.2834 22.8413C36.2354 20.7934 33.4579 19.6428 30.5616 19.6426Z" stroke="#09F1B9" stroke-width="3.03842" stroke-miterlimit="10"/>
<path d="M38.7094 38.71L46.3361 46.3367" stroke="#09F1B9" stroke-width="3.03842" stroke-miterlimit="10" stroke-linecap="round"/>
</svg>
