<svg width="20" height="20" viewBox="-2 -1  20" fill="none" xmlns="http://www.w3.org/2000/svg">
<circle cx="8.00857" cy="8.29568" r="7.24585" stroke="#0F0F0F" stroke-width="1.52544"/>
<path fill-rule="evenodd" clip-rule="evenodd" d="M8.93368 4.86428C8.93368 4.44304 8.59219 4.10156 8.17096 4.10156C7.74972 4.10156 7.40823 4.44304 7.40823 4.86428V7.69749H4.57595C4.15471 7.69749 3.81323 8.03897 3.81323 8.46021C3.81323 8.88145 4.15471 9.22293 4.57595 9.22293H7.40823V12.0557C7.40823 12.4769 7.74972 12.8184 8.17096 12.8184C8.59219 12.8184 8.93368 12.4769 8.93368 12.0557V9.22293H11.7673C12.1886 9.22293 12.53 8.88145 12.53 8.46021C12.53 8.03897 12.1886 7.69749 11.7673 7.69749H8.93368V4.86428Z" fill="#0F0F0F"/>
</svg>
