<svg width="23" height="23" viewBox="0 0 23 23" fill="none" xmlns="http://www.w3.org/2000/svg">
<path d="M7.41321 4.2136L14.0415 10.9483C14.1869 11.0952 14.2684 11.2936 14.2684 11.5003C14.2684 11.707 14.1869 11.9053 14.0415 12.0523L7.41465 18.787C7.26935 18.9348 7.18793 19.1338 7.18793 19.3411C7.18793 19.5484 7.26935 19.7474 7.41465 19.8953C7.48563 19.9681 7.57046 20.026 7.66415 20.0655C7.75784 20.105 7.8585 20.1253 7.96018 20.1253C8.06186 20.1253 8.16251 20.105 8.2562 20.0655C8.34989 20.026 8.43473 19.9681 8.50571 19.8953L15.1326 13.162C15.568 12.7185 15.812 12.1218 15.812 11.5003C15.812 10.8787 15.568 10.282 15.1326 9.83854L8.50571 3.10529C8.43471 3.03226 8.34978 2.97421 8.25596 2.93457C8.16213 2.89493 8.06131 2.87451 7.95946 2.87451C7.8576 2.87451 7.75678 2.89493 7.66296 2.93457C7.56913 2.97421 7.48421 3.03226 7.41321 3.10529C7.26791 3.25314 7.1865 3.45215 7.1865 3.65945C7.1865 3.86674 7.26791 4.06575 7.41321 4.2136Z" fill="#0F0F0F"/>
</svg>
