<svg width="21" height="16" viewBox="0 0 21 16" fill="none" xmlns="http://www.w3.org/2000/svg">
<path d="M16.4788 4.00712C16.3566 5.70352 15.0982 7.01033 13.7258 7.01033C12.3535 7.01033 11.093 5.70394 10.9729 4.00712C10.8478 2.24231 12.0728 1.00391 13.7258 1.00391C15.3789 1.00391 16.6039 2.27443 16.4788 4.00712Z" stroke="#0F0F0F" stroke-width="1.52544" stroke-linecap="round" stroke-linejoin="round"/>
<path d="M13.726 9.67969C11.0077 9.67969 8.39362 11.0299 7.73875 13.6594C7.65199 14.0072 7.87014 14.3514 8.2276 14.3514H19.2248C19.5823 14.3514 19.7992 14.0072 19.7136 13.6594C19.0588 10.9878 16.4447 9.67969 13.726 9.67969Z" stroke="#0F0F0F" stroke-width="1.52544" stroke-miterlimit="10"/>
<path d="M8.05356 4.75562C7.95595 6.1104 6.93903 7.17738 5.84286 7.17738C4.74669 7.17738 3.7281 6.11082 3.63216 4.75562C3.53247 3.34619 4.52228 2.33887 5.84286 2.33887C7.16344 2.33887 8.15325 3.37206 8.05356 4.75562Z" stroke="#0F0F0F" stroke-width="1.52544" stroke-linecap="round" stroke-linejoin="round"/>
<path d="M8.30358 9.76373C7.5507 9.41878 6.72147 9.28613 5.84262 9.28613C3.67363 9.28613 1.58389 10.3644 1.06042 12.4645C0.991593 12.7423 1.16595 13.0172 1.45125 13.0172H6.1346" stroke="#0F0F0F" stroke-width="1.52544" stroke-miterlimit="10" stroke-linecap="round"/>
</svg>
