<svg width="23" height="22" viewBox="0 0 23 22" fill="none" xmlns="http://www.w3.org/2000/svg">
<path d="M17.4788 7.00712C17.3566 8.70352 16.0982 10.0103 14.7258 10.0103C13.3535 10.0103 12.093 8.70394 11.9729 7.00712C11.8478 5.24231 13.0728 4.00391 14.7258 4.00391C16.3789 4.00391 17.6039 5.27443 17.4788 7.00712Z" stroke="#0F0F0F" stroke-width="1.52544" stroke-linecap="round" stroke-linejoin="round"/>
<path d="M14.726 12.6797C12.0077 12.6797 9.39362 14.0299 8.73875 16.6594C8.65199 17.0072 8.87014 17.3514 9.2276 17.3514H20.2248C20.5823 17.3514 20.7992 17.0072 20.7136 16.6594C20.0588 13.9878 17.4447 12.6797 14.726 12.6797Z" stroke="#0F0F0F" stroke-width="1.52544" stroke-miterlimit="10"/>
<path d="M9.05356 7.75562C8.95595 9.1104 7.93903 10.1774 6.84286 10.1774C5.74669 10.1774 4.7281 9.11082 4.63216 7.75562C4.53247 6.34619 5.52228 5.33887 6.84286 5.33887C8.16344 5.33887 9.15325 6.37206 9.05356 7.75562Z" stroke="#0F0F0F" stroke-width="1.52544" stroke-linecap="round" stroke-linejoin="round"/>
<path d="M9.30358 12.7637C8.5507 12.4188 7.72147 12.2861 6.84262 12.2861C4.67363 12.2861 2.58389 13.3644 2.06042 15.4645C1.99159 15.7423 2.16595 16.0172 2.45125 16.0172H7.1346" stroke="#0F0F0F" stroke-width="1.52544" stroke-miterlimit="10" stroke-linecap="round"/>
</svg>
