<svg width="23" height="23" viewBox="0 0 23 23" fill="none" xmlns="http://www.w3.org/2000/svg">
<path d="M9.39205 1.55957C7.84312 1.55957 6.32898 2.01888 5.0411 2.87942C3.75322 3.73995 2.74943 4.96306 2.15669 6.39408C1.56394 7.8251 1.40885 9.39975 1.71103 10.9189C2.01321 12.4381 2.75909 13.8335 3.85434 14.9288C4.9496 16.024 6.34504 16.7699 7.8642 17.0721C9.38336 17.3743 10.958 17.2192 12.389 16.6264C13.82 16.0337 15.0432 15.0299 15.9037 13.742C16.7642 12.4541 17.2235 10.94 17.2235 9.39107C17.2234 7.31407 16.3983 5.32217 14.9296 3.85351C13.4609 2.38485 11.469 1.5597 9.39205 1.55957Z" stroke="#09F1B9" stroke-width="2.7918" stroke-miterlimit="10"/>
<path d="M15.2349 15.2344L20.7043 20.7038" stroke="#09F1B9" stroke-width="2.7918" stroke-miterlimit="10" stroke-linecap="round"/>
</svg>
