<svg width="30" height="30" viewBox="0 0 30 30" fill="none" xmlns="http://www.w3.org/2000/svg">
<path d="M12.5616 1.64258C10.4018 1.64258 8.29039 2.28306 6.49452 3.48302C4.69865 4.68298 3.29894 6.38853 2.47239 8.38399C1.64584 10.3795 1.42958 12.5752 1.85095 14.6936C2.27232 16.8119 3.3124 18.7578 4.83966 20.2851C6.36692 21.8123 8.31277 22.8524 10.4311 23.2738C12.5495 23.6951 14.7453 23.4789 16.7407 22.6523C18.7362 21.8258 20.4417 20.4261 21.6417 18.6302C22.8417 16.8343 23.4821 14.723 23.4821 12.5631C23.482 9.66684 22.3313 6.88928 20.2834 4.84132C18.2354 2.79337 15.4579 1.64276 12.5616 1.64258Z" stroke="#09F1B9" stroke-width="3.03842" stroke-miterlimit="10"/>
<path d="M20.7094 20.71L28.3361 28.3367" stroke="#09F1B9" stroke-width="3.03842" stroke-miterlimit="10" stroke-linecap="round"/>
</svg>
