<svg width="873" height="305" viewBox="0 0 873 305" fill="none" xmlns="http://www.w3.org/2000/svg">
<path fill-rule="evenodd" clip-rule="evenodd" d="M26 1C12.1929 1 1 12.1929 1 26V278C1 291.807 12.1929 303 26 303H597.449C611.256 303 622.449 291.807 622.449 278V279C622.449 292.807 633.642 304 647.449 304H847C860.807 304 872 292.807 872 279V27C872 13.1929 860.807 2 847 2H647.449C633.642 2 622.449 13.1929 622.449 27V26C622.449 12.1929 611.256 1 597.449 1H26Z" fill="white"/>
<path d="M1.5 26C1.5 12.469 12.469 1.5 26 1.5V0.5C11.9167 0.5 0.5 11.9167 0.5 26H1.5ZM1.5 278V26H0.5V278H1.5ZM26 302.5C12.469 302.5 1.5 291.531 1.5 278H0.5C0.5 292.083 11.9167 303.5 26 303.5V302.5ZM597.449 302.5H26V303.5H597.449V302.5ZM621.949 278C621.949 291.531 610.98 302.5 597.449 302.5V303.5C611.533 303.5 622.949 292.083 622.949 278H621.949ZM622.949 279V278H621.949V279H622.949ZM647.449 303.5C633.918 303.5 622.949 292.531 622.949 279H621.949C621.949 293.083 633.366 304.5 647.449 304.5V303.5ZM847 303.5H647.449V304.5H847V303.5ZM871.5 279C871.5 292.531 860.531 303.5 847 303.5V304.5C861.083 304.5 872.5 293.083 872.5 279H871.5ZM871.5 27V279H872.5V27H871.5ZM847 2.5C860.531 2.5 871.5 13.469 871.5 27H872.5C872.5 12.9167 861.083 1.5 847 1.5V2.5ZM647.449 2.5H847V1.5H647.449V2.5ZM622.949 27C622.949 13.469 633.918 2.5 647.449 2.5V1.5C633.366 1.5 621.949 12.9167 621.949 27H622.949ZM621.949 26V27H622.949V26H621.949ZM597.449 1.5C610.98 1.5 621.949 12.469 621.949 26H622.949C622.949 11.9167 611.533 0.5 597.449 0.5V1.5ZM26 1.5H597.449V0.5H26V1.5Z" fill="#E8E8E8"/>
</svg>
