<svg width="623" height="304" viewBox="0 0 623 304" fill="none" xmlns="http://www.w3.org/2000/svg">
<path d="M1 26C1 12.1929 12.1929 1 26 1H597.449C611.256 1 622.449 12.1929 622.449 26V278C622.449 291.807 611.256 303 597.449 303H26C12.1929 303 1 291.807 1 278V26Z" fill="white"/>
<path d="M26 1.5H597.449V0.5H26V1.5ZM621.949 26V278H622.949V26H621.949ZM597.449 302.5H26V303.5H597.449V302.5ZM1.5 278V26H0.5V278H1.5ZM26 302.5C12.469 302.5 1.5 291.531 1.5 278H0.5C0.5 292.083 11.9167 303.5 26 303.5V302.5ZM621.949 278C621.949 291.531 610.98 302.5 597.449 302.5V303.5C611.533 303.5 622.949 292.083 622.949 278H621.949ZM597.449 1.5C610.98 1.5 621.949 12.469 621.949 26H622.949C622.949 11.9167 611.533 0.5 597.449 0.5V1.5ZM26 0.5C11.9167 0.5 0.5 11.9167 0.5 26H1.5C1.5 12.469 12.469 1.5 26 1.5V0.5Z" fill="#E8E8E8"/>
</svg>
