<svg width="21" height="21" viewBox="0 0 21 21" fill="none" xmlns="http://www.w3.org/2000/svg">
<path d="M10.577 18.5073L10.5769 18.5073L10.574 18.5089C10.5513 18.5211 10.5258 18.5275 10.5 18.5275C10.4742 18.5275 10.4487 18.5211 10.426 18.5089L10.423 18.5073C10.2587 18.4203 8.07713 17.2313 5.94425 15.3634C3.78507 13.4725 1.81264 11.0045 1.8125 8.36746C1.81395 7.15157 2.2976 5.98589 3.15737 5.12612C4.01714 4.26635 5.18282 3.7827 6.39871 3.78125C7.94643 3.78133 9.27667 4.44441 10.1002 5.54119L10.5 6.07372L10.8998 5.54119C11.7233 4.44441 13.0536 3.78133 14.6013 3.78125C15.8172 3.7827 16.9829 4.26635 17.8426 5.12612C18.7025 5.98596 19.1861 7.15176 19.1875 8.36775C19.1872 11.0047 17.2149 13.4726 15.0558 15.3634C12.9229 17.2313 10.7413 18.4203 10.577 18.5073Z" stroke="#0F0F0F"/>
</svg>
