<svg width="56" height="26" viewBox="0 0 56 26" fill="none" xmlns="http://www.w3.org/2000/svg">
<rect width="56" height="26" rx="9" fill="#09F1B9"/>
<path d="M22.8711 8.10547C22.8711 9.35938 24.5586 10.5664 26.5508 10.8125L26.1406 11.6914C24.4648 11.4453 22.9824 10.625 22.3086 9.48828C21.6348 10.6309 20.1582 11.4453 18.4766 11.6914L18.043 10.8125C20.0586 10.5664 21.7344 9.38281 21.7344 8.10547V7.67188H22.8711V8.10547ZM27.0898 12.4531V13.3438H17.5156V12.4531H27.0898ZM22.2969 14.2344C24.5586 14.2344 25.918 14.9023 25.918 16.1094C25.918 17.3164 24.5586 17.9844 22.2969 17.9961C20.0117 17.9844 18.6523 17.3164 18.6523 16.1094C18.6523 14.9023 20.0117 14.2344 22.2969 14.2344ZM22.2969 15.0898C20.6914 15.0898 19.7773 15.4531 19.7773 16.1094C19.7773 16.7773 20.6914 17.1289 22.2969 17.1172C23.8789 17.1289 24.8047 16.7773 24.8047 16.1094C24.8047 15.4531 23.8789 15.0898 22.2969 15.0898ZM36.5938 7.50781V15.1367H35.4805V7.50781H36.5938ZM36.9102 16.8711V17.7734H29.7266V14.3633H30.8516V16.8711H36.9102ZM30.8984 8.21094C32.4805 8.21094 33.6875 9.28906 33.6875 10.8125C33.6875 12.3594 32.4805 13.4258 30.8984 13.4258C29.3164 13.4258 28.0977 12.3594 28.0977 10.8125C28.0977 9.28906 29.3164 8.21094 30.8984 8.21094ZM30.8984 9.18359C29.9141 9.18359 29.1875 9.85156 29.1875 10.8125C29.1875 11.7969 29.9141 12.4531 30.8984 12.4531C31.8594 12.4531 32.5977 11.7969 32.5977 10.8125C32.5977 9.85156 31.8594 9.18359 30.8984 9.18359Z" fill="#0F0F0F"/>
</svg>
