<svg width="25" height="26" viewBox="0 0 25 26" fill="none" xmlns="http://www.w3.org/2000/svg">
<path d="M20.4195 8.55788L13.0992 15.7626C12.9394 15.9206 12.7238 16.0092 12.4992 16.0092C12.2745 16.0092 12.0589 15.9206 11.8992 15.7626L4.57884 8.55944C4.41813 8.40151 4.20182 8.31302 3.9765 8.31302C3.75117 8.31302 3.53487 8.40151 3.37416 8.55944C3.29502 8.63659 3.23212 8.7288 3.18918 8.83064C3.14624 8.93248 3.12411 9.04189 3.12411 9.15241C3.12411 9.26293 3.14624 9.37234 3.18918 9.47418C3.23212 9.57601 3.29502 9.66823 3.37416 9.74538L10.6929 16.9485C11.175 17.4218 11.8236 17.687 12.4992 17.687C13.1747 17.687 13.8233 17.4218 14.3054 16.9485L21.6242 9.74538C21.7035 9.6682 21.7666 9.57589 21.8097 9.47391C21.8528 9.37193 21.875 9.26234 21.875 9.15163C21.875 9.04092 21.8528 8.93133 21.8097 8.82935C21.7666 8.72736 21.7035 8.63505 21.6242 8.55788C21.4634 8.39995 21.2471 8.31145 21.0218 8.31145C20.7965 8.31145 20.5802 8.39995 20.4195 8.55788Z" fill="#4F4F4F"/>
</svg>
