<svg width="39" height="39" viewBox="0 0 39 39" fill="none" xmlns="http://www.w3.org/2000/svg">
<path d="M9.625 4.8125H20.4531C21.9993 4.81298 23.5155 5.23897 24.8356 6.04379C26.1558 6.84861 27.229 8.00123 27.9377 9.37539C28.6464 10.7495 28.9632 12.2922 28.8535 13.8345C28.7438 15.3767 28.2118 16.8591 27.3158 18.1191C28.87 19.086 30.0668 20.5331 30.7249 22.2411C31.3829 23.9492 31.4664 25.8252 30.9627 27.585C30.459 29.3448 29.3955 30.8925 27.9333 31.9936C26.4711 33.0948 24.6898 33.6894 22.8594 33.6875H9.625C8.98682 33.6875 8.37478 33.434 7.92352 32.9827C7.47226 32.5315 7.21875 31.9194 7.21875 31.2812V7.21875C7.21875 6.58057 7.47226 5.96853 7.92352 5.51727C8.37478 5.06601 8.98682 4.8125 9.625 4.8125ZM12.0312 21.6562V28.875H22.8594C23.8166 28.875 24.7347 28.4947 25.4116 27.8178C26.0885 27.1409 26.4688 26.2229 26.4688 25.2656C26.4688 24.3084 26.0885 23.3903 25.4116 22.7134C24.7347 22.0365 23.8166 21.6562 22.8594 21.6562H12.0312ZM20.4531 16.8438C21.4104 16.8438 22.3285 16.4635 23.0053 15.7866C23.6822 15.1097 24.0625 14.1916 24.0625 13.2344C24.0625 12.2771 23.6822 11.3591 23.0053 10.6822C22.3285 10.0053 21.4104 9.625 20.4531 9.625H12.0312V16.8438H20.4531Z" fill="#0F0F0F"/>
</svg>
