<svg width="56" height="26" viewBox="0 0 56 26" fill="none" xmlns="http://www.w3.org/2000/svg">
<rect width="56" height="26" rx="9" fill="#E8E8E8"/>
<path d="M21.5703 9.52344C21.5703 10.5195 22.5078 11.375 24.043 11.7031L23.5859 12.5703C22.3789 12.3008 21.4941 11.6973 21.0312 10.8945C20.5801 11.7676 19.6777 12.4238 18.4297 12.7109L17.9609 11.8438C19.5078 11.5156 20.457 10.5664 20.457 9.52344H18.1953V8.64453H20.457V7.51953H21.5703V8.64453H23.8203V9.52344H21.5703ZM26.2461 7.50781V17.9961H25.1445V7.50781H26.2461ZM17.5039 13.3555C19.4961 13.3555 22.1328 13.3438 24.418 13.0508L24.5 13.8594C23.5391 14.0176 22.5488 14.1172 21.582 14.1758V17.6797H20.4688V14.2344C19.4609 14.2754 18.5 14.2812 17.6562 14.2812L17.5039 13.3555ZM37.4961 15.7461V16.6602H27.8867V15.7461H32.0938V13.25H33.1953V15.7461H37.4961ZM33.2188 8.96094C33.2188 10.625 35.0469 12.1836 37.0742 12.5234L36.5938 13.4375C34.8945 13.0977 33.3301 12.0488 32.6328 10.6016C31.9414 12.043 30.3945 13.1094 28.707 13.4375L28.2148 12.5234C30.2305 12.1836 32.0469 10.625 32.0469 8.96094V8.16406H33.2188V8.96094Z" fill="#0F0F0F"/>
</svg>
