<svg width="35" height="36" viewBox="0 0 35 36" fill="none" xmlns="http://www.w3.org/2000/svg">
<rect x="6.60938" y="6.60742" width="22.5801" height="22.5801" rx="2.70961" fill="#07C093"/>
<path d="M24.9884 13.5256L16.8596 21.6544C16.7888 21.7254 16.7046 21.7818 16.612 21.8203C16.5194 21.8587 16.4201 21.8785 16.3198 21.8785C16.2195 21.8785 16.1201 21.8587 16.0275 21.8203C15.9349 21.7818 15.8508 21.7254 15.78 21.6544L12.2236 18.098C12.1527 18.0271 12.0965 17.943 12.0581 17.8504C12.0197 17.7577 12 17.6585 12 17.5582C12 17.458 12.0197 17.3587 12.0581 17.2661C12.0965 17.1735 12.1527 17.0893 12.2236 17.0184C12.2945 16.9475 12.3786 16.8913 12.4713 16.8529C12.5639 16.8146 12.6631 16.7948 12.7634 16.7948C12.8637 16.7948 12.9629 16.8146 13.0555 16.8529C13.1482 16.8913 13.2323 16.9475 13.3032 17.0184L16.3204 20.0356L23.91 12.4472C24.0532 12.3041 24.2474 12.2236 24.4499 12.2236C24.6523 12.2236 24.8465 12.3041 24.9897 12.4472C25.1328 12.5904 25.2133 12.7846 25.2133 12.987C25.2133 13.1895 25.1328 13.3837 24.9897 13.5268L24.9884 13.5256Z" fill="white"/>
</svg>
