<svg width="251" height="245" viewBox="0 0 251 245" fill="none" xmlns="http://www.w3.org/2000/svg">
<path fill-rule="evenodd" clip-rule="evenodd" d="M198.172 136.074C207.315 121.746 211.988 104.407 210.415 86.1656C206.615 42.1082 167.819 9.47306 123.761 13.273C79.7039 17.0729 47.0687 55.8689 50.8686 99.9263C52.4077 117.771 59.6876 133.741 70.7329 146.176L70.3732 146.089L130.449 225.498C136.693 233.752 149.427 232.602 154.092 223.364L198.172 136.074ZM185.46 88.1314C188.064 118.313 165.707 144.891 135.525 147.494C105.343 150.097 78.7654 127.74 76.1622 97.5583C73.5591 67.3765 95.916 40.7989 126.098 38.1958C156.28 35.5926 182.857 57.9496 185.46 88.1314Z" fill="#09F1B9"/>
<path d="M214.193 57.075L236.637 63.1186L231.624 81.7357L216.816 77.7484L154.29 113.725L144.643 97.2499L214.193 57.075ZM128.467 93.8925C130.888 94.5446 132.873 96.0773 134.327 98.4656L147.941 122.098C149.116 124.411 149.564 126.828 148.887 129.341L146.953 132.814L89.6483 197.251C87.0016 200.033 83.2908 200.831 79.9381 199.928C76.6785 199.05 73.7769 196.472 72.9778 192.763L64.9294 153.657L34.9824 127.623C32.0379 124.833 31.2388 121.124 32.1161 117.866C32.9933 114.608 35.547 111.801 39.4941 110.867L124.025 93.6949C125.58 93.1151 126.977 93.4913 128.467 93.8925ZM96.7187 113.497L88.4951 118.072L107.894 151.748L115.982 146.937L96.7187 113.497ZM80.053 123.086L71.6611 127.915L90.9239 161.355L99.3158 156.526L80.053 123.086Z" fill="#0F0F0F"/>
<path d="M222.902 73.697C225.286 77.8377 221.505 84.4838 214.457 88.5414C207.409 92.5991 199.763 92.5317 197.379 88.391C194.995 84.2503 198.776 77.6042 205.824 73.5466C212.872 69.4889 220.518 69.5563 222.902 73.697Z" fill="#09F1B9"/>
<path d="M66.1029 106.335C66.9268 111.041 61.1007 115.993 53.0899 117.396C45.0791 118.798 37.9172 116.119 37.0933 111.413C36.2695 106.707 42.0956 101.755 50.1063 100.352C58.1171 98.9501 65.279 101.628 66.1029 106.335Z" fill="#09F1B9"/>
</svg>
