<svg width="39" height="39" viewBox="0 0 39 39" fill="none" xmlns="http://www.w3.org/2000/svg">
<path d="M18.2812 13.4062C18.6045 13.4062 18.9145 13.2778 19.143 13.0493C19.3716 12.8207 19.5 12.5107 19.5 12.1875C19.5 11.8643 19.3716 11.5543 19.143 11.3257C18.9145 11.0972 18.6045 10.9688 18.2812 10.9688C17.958 10.9688 17.648 11.0972 17.4195 11.3257C17.1909 11.5543 17.0625 11.8643 17.0625 12.1875C17.0625 12.5107 17.1909 12.8207 17.4195 13.0493C17.648 13.2778 17.958 13.4062 18.2812 13.4062ZM24.375 13.4062C24.375 13.7295 24.2466 14.0395 24.018 14.268C23.7895 14.4966 23.4795 14.625 23.1562 14.625C22.833 14.625 22.523 14.4966 22.2945 14.268C22.0659 14.0395 21.9375 13.7295 21.9375 13.4062C21.9375 13.083 22.0659 12.773 22.2945 12.5445C22.523 12.3159 22.833 12.1875 23.1562 12.1875C23.4795 12.1875 23.7895 12.3159 24.018 12.5445C24.2466 12.773 24.375 13.083 24.375 13.4062ZM28.0312 17.0625C28.0312 17.3857 27.9028 17.6957 27.6743 17.9243C27.4457 18.1528 27.1357 18.2812 26.8125 18.2812C26.4893 18.2812 26.1793 18.1528 25.9507 17.9243C25.7222 17.6957 25.5938 17.3857 25.5938 17.0625C25.5938 16.7393 25.7222 16.4293 25.9507 16.2007C26.1793 15.9722 26.4893 15.8438 26.8125 15.8438C27.1357 15.8438 27.4457 15.9722 27.6743 16.2007C27.9028 16.4293 28.0312 16.7393 28.0312 17.0625ZM26.8125 23.1562C27.1357 23.1562 27.4457 23.0278 27.6743 22.7993C27.9028 22.5707 28.0312 22.2607 28.0312 21.9375C28.0312 21.6143 27.9028 21.3043 27.6743 21.0757C27.4457 20.8472 27.1357 20.7188 26.8125 20.7188C26.4893 20.7188 26.1793 20.8472 25.9507 21.0757C25.7222 21.3043 25.5938 21.6143 25.5938 21.9375C25.5938 22.2607 25.7222 22.5707 25.9507 22.7993C26.1793 23.0278 26.4893 23.1562 26.8125 23.1562ZM25.5938 26.8125C25.5938 27.1357 25.4653 27.4457 25.2368 27.6743C25.0082 27.9028 24.6982 28.0312 24.375 28.0312C24.0518 28.0312 23.7418 27.9028 23.5132 27.6743C23.2847 27.4457 23.1562 27.1357 23.1562 26.8125C23.1562 26.4893 23.2847 26.1793 23.5132 25.9507C23.7418 25.7222 24.0518 25.5938 24.375 25.5938C24.6982 25.5938 25.0082 25.7222 25.2368 25.9507C25.4653 26.1793 25.5938 26.4893 25.5938 26.8125ZM19.5 4.875C15.6212 4.875 11.9013 6.41584 9.15856 9.15856C6.41584 11.9013 4.875 15.6212 4.875 19.5C4.875 20.7929 5.38861 22.0329 6.30285 22.9471C7.21709 23.8614 8.45707 24.375 9.75 24.375C11.4757 24.375 12.3947 23.4536 13.0163 22.8321L13.0504 22.8004C13.6451 22.2032 13.9425 21.9375 14.625 21.9375C15.2715 21.9375 15.8915 22.1943 16.3486 22.6514C16.8057 23.1085 17.0625 23.7285 17.0625 24.375V26.8125C17.0625 28.7519 17.8329 30.6119 19.2043 31.9832C20.5756 33.3546 22.4356 34.125 24.375 34.125C27.6266 34.125 30.1129 32.3066 31.7289 29.6059C33.3255 26.9344 34.125 23.3488 34.125 19.5C34.125 15.6212 32.5842 11.9013 29.8414 9.15856C27.0987 6.41584 23.3788 4.875 19.5 4.875ZM7.3125 19.5C7.3125 16.2677 8.59654 13.1677 10.8821 10.8821C13.1677 8.59654 16.2677 7.3125 19.5 7.3125C22.7323 7.3125 25.8323 8.59654 28.1179 10.8821C30.4035 13.1677 31.6875 16.2677 31.6875 19.5C31.6875 23.0539 30.9441 26.1714 29.6376 28.353C28.3481 30.5053 26.5688 31.6875 24.375 31.6875C23.0821 31.6875 21.8421 31.1739 20.9279 30.2596C20.0136 29.3454 19.5 28.1054 19.5 26.8125V24.375C19.5 23.0821 18.9864 21.8421 18.0721 20.9279C17.1579 20.0136 15.9179 19.5 14.625 19.5C12.8993 19.5 11.9803 20.4214 11.3587 21.0429L11.3246 21.0746C10.7299 21.6718 10.4325 21.9375 9.75 21.9375C9.10353 21.9375 8.48355 21.6807 8.02643 21.2236C7.56931 20.7665 7.3125 20.1465 7.3125 19.5Z" fill="#0F0F0F"/>
</svg>
