<svg width="39" height="39" viewBox="0 0 39 39" fill="none" xmlns="http://www.w3.org/2000/svg">
<g clip-path="url(#clip0_1957_471)">
<path d="M34.724 4.27734H4.77951C4.21225 4.27734 3.66821 4.50269 3.26709 4.90381C2.86597 5.30493 2.64063 5.84896 2.64062 6.41623V32.0829C2.64063 32.6502 2.86597 33.1942 3.26709 33.5953C3.66821 33.9964 4.21225 34.2218 4.77951 34.2218H34.724C35.2912 34.2218 35.8353 33.9964 36.2364 33.5953C36.6375 33.1942 36.8628 32.6502 36.8628 32.0829V6.41623C36.8628 5.84896 36.6375 5.30493 36.2364 4.90381C35.8353 4.50269 35.2912 4.27734 34.724 4.27734ZM4.77951 32.0829V6.41623H34.724V32.0829H4.77951Z" fill="#0F0F0F"/>
<path d="M10.0365 14.9723C10.671 14.9723 11.2913 14.7842 11.8189 14.4316C12.3465 14.0791 12.7577 13.578 13.0006 12.9918C13.2434 12.4055 13.3069 11.7604 13.1831 11.1381C13.0594 10.5157 12.7538 9.94406 12.3051 9.49536C11.8564 9.04667 11.2847 8.74111 10.6624 8.61731C10.04 8.49352 9.39493 8.55705 8.80868 8.79989C8.22244 9.04272 7.72136 9.45394 7.36883 9.98154C7.01629 10.5092 6.82812 11.1295 6.82812 11.764C6.82813 12.6149 7.16614 13.431 7.76782 14.0326C8.3695 14.6343 9.18556 14.9723 10.0365 14.9723ZM10.0365 10.0529C10.3753 10.0508 10.7072 10.1493 10.99 10.336C11.2728 10.5228 11.4938 10.7893 11.6249 11.1017C11.7561 11.4142 11.7915 11.7586 11.7267 12.0912C11.6619 12.4238 11.4998 12.7297 11.2609 12.9701C11.022 13.2105 10.7171 13.3745 10.3849 13.4414C10.0527 13.5083 9.70812 13.475 9.39483 13.3459C9.08155 13.2167 8.81367 12.9974 8.62518 12.7157C8.43668 12.4341 8.33605 12.1029 8.33604 11.764C8.33885 11.3139 8.5189 10.883 8.83718 10.5647C9.15547 10.2464 9.58635 10.0664 10.0365 10.0636V10.0529Z" fill="#0F0F0F"/>
<path d="M24.859 16.437L19.084 22.212L14.8062 17.9342C14.6058 17.735 14.3348 17.6232 14.0522 17.6232C13.7697 17.6232 13.4986 17.735 13.2983 17.9342L6.82812 24.4899V27.5164L14.0897 20.2549L17.6081 23.7199L13.5977 27.7303H16.5387L25.5755 18.6935L32.5803 25.6663V22.6504L26.3669 16.437C26.1665 16.2378 25.8954 16.126 25.6129 16.126C25.3304 16.126 25.0593 16.2378 24.859 16.437Z" fill="#0F0F0F"/>
</g>
<defs>
<clipPath id="clip0_1957_471">
<rect width="38.5" height="38.5" fill="white" transform="translate(0.5)"/>
</clipPath>
</defs>
</svg>
