<svg width="85" height="85" viewBox="0 0 85 85" fill="none" xmlns="http://www.w3.org/2000/svg">
<circle cx="42.498" cy="42.4999" r="40.08" stroke="#07C093" stroke-width="3"/>
<path fill-rule="evenodd" clip-rule="evenodd" d="M44.8532 24.6804C44.8532 23.852 44.1816 23.1804 43.3532 23.1804C42.5247 23.1804 41.8532 23.852 41.8532 24.6804V41.8478H24.6823C23.8539 41.8478 23.1823 42.5194 23.1823 43.3478C23.1823 44.1762 23.8539 44.8478 24.6823 44.8478H41.8532V62.0175C41.8532 62.846 42.5247 63.5175 43.3532 63.5175C44.1816 63.5175 44.8532 62.846 44.8532 62.0175V44.8478H62.0195C62.8479 44.8478 63.5195 44.1762 63.5195 43.3478C63.5195 42.5194 62.8479 41.8478 62.0195 41.8478H44.8532V24.6804Z" fill="#07C093"/>
</svg>
