<svg width="87" height="87" viewBox="0 0 87 87" fill="none" xmlns="http://www.w3.org/2000/svg">
<path d="M30.375 30.375L47.875 47.875M61 26L39.125 47.875M1.9375 43.5C1.9375 23.9087 1.9375 14.1088 8.02313 8.02313C14.1088 1.9375 23.9044 1.9375 43.5 1.9375C63.0913 1.9375 72.8912 1.9375 78.9769 8.02313C85.0625 14.1088 85.0625 23.9044 85.0625 43.5C85.0625 63.0913 85.0625 72.8912 78.9769 78.9769C72.8912 85.0625 63.0956 85.0625 43.5 85.0625C23.9087 85.0625 14.1088 85.0625 8.02313 78.9769C1.9375 72.8912 1.9375 63.0956 1.9375 43.5Z" stroke="#07C093" stroke-width="3" stroke-linecap="round" stroke-linejoin="round"/>
</svg>
