<svg width="83" height="57" viewBox="0 0 83 57" fill="none" xmlns="http://www.w3.org/2000/svg">
<path d="M0.765625 2.25C0.765625 1.81488 0.938476 1.39758 1.24615 1.0899C1.55383 0.782226 1.97113 0.609375 2.40625 0.609375H74.5938C75.0289 0.609375 75.4462 0.782226 75.7538 1.0899C76.0615 1.39758 76.2344 1.81488 76.2344 2.25C76.2344 2.68512 76.0615 3.10242 75.7538 3.4101C75.4462 3.71778 75.0289 3.89062 74.5938 3.89062H2.40625C1.97113 3.89062 1.55383 3.71778 1.24615 3.4101C0.938476 3.10242 0.765625 2.68512 0.765625 2.25ZM2.40625 30.1406H25.375C25.8101 30.1406 26.2274 29.9678 26.5351 29.6601C26.8428 29.3524 27.0156 28.9351 27.0156 28.5C27.0156 28.0649 26.8428 27.6476 26.5351 27.3399C26.2274 27.0322 25.8101 26.8594 25.375 26.8594H2.40625C1.97113 26.8594 1.55383 27.0322 1.24615 27.3399C0.938476 27.6476 0.765625 28.0649 0.765625 28.5C0.765625 28.9351 0.938476 29.3524 1.24615 29.6601C1.55383 29.9678 1.97113 30.1406 2.40625 30.1406ZM31.9375 53.1094H2.40625C1.97113 53.1094 1.55383 53.2822 1.24615 53.5899C0.938476 53.8976 0.765625 54.3149 0.765625 54.75C0.765625 55.1851 0.938476 55.6024 1.24615 55.9101C1.55383 56.2178 1.97113 56.3906 2.40625 56.3906H31.9375C32.3726 56.3906 32.7899 56.2178 33.0976 55.9101C33.4053 55.6024 33.5781 55.1851 33.5781 54.75C33.5781 54.3149 33.4053 53.8976 33.0976 53.5899C32.7899 53.2822 32.3726 53.1094 31.9375 53.1094ZM82.2021 33.709L72.1697 41.99L75.2295 54.3398C75.3074 54.6534 75.2909 54.983 75.1822 55.2873C75.0735 55.5916 74.8773 55.857 74.6184 56.0502C74.333 56.2602 73.9882 56.3737 73.634 56.3742C73.3455 56.3725 73.0625 56.2947 72.8137 56.1486L61.4688 49.4918L50.132 56.165C49.8536 56.3287 49.5331 56.4066 49.2107 56.3889C48.8882 56.3712 48.5782 56.2588 48.3193 56.0657C48.0605 55.8725 47.8644 55.6073 47.7557 55.3032C47.6469 54.9991 47.6304 54.6697 47.708 54.3562L50.7678 41.99L40.7354 33.709C40.4821 33.501 40.2969 33.2219 40.2037 32.9078C40.1105 32.5936 40.1135 32.2587 40.2124 31.9462C40.3112 31.6338 40.5014 31.3581 40.7584 31.1547C41.0153 30.9513 41.3273 30.8295 41.6541 30.8051L54.8775 29.7838L59.9635 18.0082C60.0907 17.7147 60.301 17.4648 60.5684 17.2892C60.8359 17.1136 61.1488 17.0201 61.4688 17.0201C61.7887 17.0201 62.1016 17.1136 62.3691 17.2892C62.6365 17.4648 62.8468 17.7147 62.974 18.0082L68.06 29.7838L81.2834 30.8051C81.6102 30.8295 81.9222 30.9513 82.1791 31.1547C82.4361 31.3581 82.6263 31.6338 82.7251 31.9462C82.824 32.2587 82.827 32.5936 82.7338 32.9078C82.6406 33.2219 82.4554 33.501 82.2021 33.709ZM76.9768 33.7664L66.8008 32.9789C66.5033 32.9557 66.2177 32.8517 65.9749 32.6783C65.732 32.5048 65.5411 32.2684 65.4227 31.9945L61.4688 22.7988L57.4984 31.9945C57.38 32.2684 57.189 32.5048 56.9462 32.6783C56.7034 32.8517 56.4178 32.9557 56.1203 32.9789L45.9607 33.7664L53.6758 40.1197C53.9104 40.3153 54.0858 40.5725 54.1822 40.8624C54.2786 41.1522 54.2921 41.4632 54.2213 41.7604L51.8506 51.3416L60.6484 46.1736C60.9007 46.025 61.1882 45.9467 61.4811 45.9467C61.7739 45.9467 62.0614 46.025 62.3137 46.1736L71.1197 51.358L68.749 41.7768C68.6782 41.4796 68.6917 41.1686 68.7881 40.8788C68.8845 40.5889 69.0599 40.3317 69.2945 40.1361L76.9768 33.7664Z" fill="#07C093"/>
</svg>
