<svg width="53" height="72" viewBox="0 0 53 72" fill="none" xmlns="http://www.w3.org/2000/svg">
<g filter="url(#filter0_d_1368_17622)">
<path d="M24 17.2889C31.0474 13.3874 32.9761 10.2486 35 4C37.5471 10.5335 39.8467 13.5132 46 17.2889C38.6533 21.6688 36.7415 24.5533 35 30C33.2684 24.3375 31.3679 21.5131 24 17.2889Z" fill="#09F1B9"/>
<path d="M24 17.2889C31.0474 13.3874 32.9761 10.2486 35 4C37.5471 10.5335 39.8467 13.5132 46 17.2889C38.6533 21.6688 36.7415 24.5533 35 30C33.2684 24.3375 31.3679 21.5131 24 17.2889Z" stroke="#0F0F0F"/>
</g>
<g filter="url(#filter1_d_1368_17622)">
<path d="M7 45.8667C15.9694 40.9148 18.4241 36.9309 21 29C24.2418 37.2926 27.1685 41.0744 35 45.8667C25.6496 51.4258 23.2164 55.0869 21 62C18.7962 54.8129 16.3773 51.2281 7 45.8667Z" fill="#0F0F0F"/>
<path d="M7 45.8667C15.9694 40.9148 18.4241 36.9309 21 29C24.2418 37.2926 27.1685 41.0744 35 45.8667C25.6496 51.4258 23.2164 55.0869 21 62C18.7962 54.8129 16.3773 51.2281 7 45.8667Z" stroke="#09F1B9"/>
</g>
<defs>
<filter id="filter0_d_1368_17622" x="17.8805" y="0.411719" width="34.1844" height="39.3631" filterUnits="userSpaceOnUse" color-interpolation-filters="sRGB">
<feFlood flood-opacity="0" result="BackgroundImageFix"/>
<feColorMatrix in="SourceAlpha" type="matrix" values="0 0 0 0 0 0 0 0 0 0 0 0 0 0 0 0 0 0 127 0" result="hardAlpha"/>
<feOffset dy="3"/>
<feGaussianBlur stdDeviation="2.55"/>
<feComposite in2="hardAlpha" operator="out"/>
<feColorMatrix type="matrix" values="0 0 0 0 0 0 0 0 0 0 0 0 0 0 0 0 0 0 0.25 0"/>
<feBlend mode="normal" in2="BackgroundImageFix" result="effect1_dropShadow_1368_17622"/>
<feBlend mode="normal" in="SourceGraphic" in2="effect1_dropShadow_1368_17622" result="shape"/>
</filter>
<filter id="filter1_d_1368_17622" x="0.880469" y="25.4156" width="40.1883" height="46.3553" filterUnits="userSpaceOnUse" color-interpolation-filters="sRGB">
<feFlood flood-opacity="0" result="BackgroundImageFix"/>
<feColorMatrix in="SourceAlpha" type="matrix" values="0 0 0 0 0 0 0 0 0 0 0 0 0 0 0 0 0 0 127 0" result="hardAlpha"/>
<feOffset dy="3"/>
<feGaussianBlur stdDeviation="2.55"/>
<feComposite in2="hardAlpha" operator="out"/>
<feColorMatrix type="matrix" values="0 0 0 0 0 0 0 0 0 0 0 0 0 0 0 0 0 0 0.25 0"/>
<feBlend mode="normal" in2="BackgroundImageFix" result="effect1_dropShadow_1368_17622"/>
<feBlend mode="normal" in="SourceGraphic" in2="effect1_dropShadow_1368_17622" result="shape"/>
</filter>
</defs>
</svg>
