<svg width="52" height="77" viewBox="0 0 52 77" fill="none" xmlns="http://www.w3.org/2000/svg">
<g filter="url(#filter0_d_1368_17619)">
<path d="M7 22.9111C17.2507 17.359 20.0561 12.8923 23 4C26.7049 13.2977 30.0497 17.538 39 22.9111C28.3138 29.1441 25.5331 33.2489 23 41C20.4814 32.9418 17.7169 28.9225 7 22.9111Z" fill="#0F0F0F"/>
<path d="M7 22.9111C17.2507 17.359 20.0561 12.8923 23 4C26.7049 13.2977 30.0497 17.538 39 22.9111C28.3138 29.1441 25.5331 33.2489 23 41C20.4814 32.9418 17.7169 28.9225 7 22.9111Z" stroke="#09F1B9"/>
</g>
<g filter="url(#filter1_d_1368_17619)">
<path d="M23 54.2889C30.0474 50.3874 31.9761 47.2486 34 41C36.5471 47.5335 38.8467 50.5132 45 54.2889C37.6533 58.6688 35.7415 61.5533 34 67C32.2684 61.3375 30.3679 58.5131 23 54.2889Z" fill="#09F1B9"/>
<path d="M23 54.2889C30.0474 50.3874 31.9761 47.2486 34 41C36.5471 47.5335 38.8467 50.5132 45 54.2889C37.6533 58.6688 35.7415 61.5533 34 67C32.2684 61.3375 30.3679 58.5131 23 54.2889Z" stroke="#0F0F0F"/>
</g>
<defs>
<filter id="filter0_d_1368_17619" x="0.864844" y="0.440039" width="44.2156" height="50.3016" filterUnits="userSpaceOnUse" color-interpolation-filters="sRGB">
<feFlood flood-opacity="0" result="BackgroundImageFix"/>
<feColorMatrix in="SourceAlpha" type="matrix" values="0 0 0 0 0 0 0 0 0 0 0 0 0 0 0 0 0 0 127 0" result="hardAlpha"/>
<feOffset dy="3"/>
<feGaussianBlur stdDeviation="2.55"/>
<feComposite in2="hardAlpha" operator="out"/>
<feColorMatrix type="matrix" values="0 0 0 0 0 0 0 0 0 0 0 0 0 0 0 0 0 0 0.25 0"/>
<feBlend mode="normal" in2="BackgroundImageFix" result="effect1_dropShadow_1368_17619"/>
<feBlend mode="normal" in="SourceGraphic" in2="effect1_dropShadow_1368_17619" result="shape"/>
</filter>
<filter id="filter1_d_1368_17619" x="16.8805" y="37.4117" width="34.1844" height="39.3631" filterUnits="userSpaceOnUse" color-interpolation-filters="sRGB">
<feFlood flood-opacity="0" result="BackgroundImageFix"/>
<feColorMatrix in="SourceAlpha" type="matrix" values="0 0 0 0 0 0 0 0 0 0 0 0 0 0 0 0 0 0 127 0" result="hardAlpha"/>
<feOffset dy="3"/>
<feGaussianBlur stdDeviation="2.55"/>
<feComposite in2="hardAlpha" operator="out"/>
<feColorMatrix type="matrix" values="0 0 0 0 0 0 0 0 0 0 0 0 0 0 0 0 0 0 0.25 0"/>
<feBlend mode="normal" in2="BackgroundImageFix" result="effect1_dropShadow_1368_17619"/>
<feBlend mode="normal" in="SourceGraphic" in2="effect1_dropShadow_1368_17619" result="shape"/>
</filter>
</defs>
</svg>
