<svg width="74" height="82" viewBox="0 0 74 82" fill="none" xmlns="http://www.w3.org/2000/svg">
<path d="M61.5 28.7503H55.375C54.8335 28.7503 54.3142 28.9654 53.9313 29.3483C53.5484 29.7312 53.3333 30.2505 53.3333 30.792C53.3333 31.3335 53.5484 31.8528 53.9313 32.2357C54.3142 32.6186 54.8335 32.8337 55.375 32.8337H61.5C63.6649 32.8369 65.7403 33.6984 67.2711 35.2292C68.802 36.76 69.6634 38.8354 69.6667 41.0003V69.5837C69.6634 71.7486 68.802 73.8239 67.2711 75.3548C65.7403 76.8856 63.6649 77.7471 61.5 77.7503H12.5C10.3351 77.7471 8.25972 76.8856 6.72887 75.3548C5.19803 73.8239 4.33657 71.7486 4.33333 69.5837V41.0003C4.33657 38.8354 5.19803 36.76 6.72887 35.2292C8.25972 33.6984 10.3351 32.8369 12.5 32.8337H22.7083C23.2498 32.8337 23.7691 32.6186 24.152 32.2357C24.5349 31.8528 24.75 31.3335 24.75 30.792C24.75 30.2505 24.5349 29.7312 24.152 29.3483C23.7691 28.9654 23.2498 28.7503 22.7083 28.7503H12.5C9.25209 28.7536 6.13814 30.0452 3.84152 32.3418C1.54491 34.6385 0.253243 37.7524 0.25 41.0003V69.5837C0.253243 72.8316 1.54491 75.9455 3.84152 78.2421C6.13814 80.5387 9.25209 81.8304 12.5 81.8336H61.5C64.7479 81.8304 67.8619 80.5387 70.1585 78.2421C72.4551 75.9455 73.7468 72.8316 73.75 69.5837V41.0003C73.7468 37.7524 72.4551 34.6385 70.1585 32.3418C67.8619 30.0452 64.7479 28.7536 61.5 28.7503ZM24.1865 17.9091L34.9583 7.13724V63.4627C34.9583 64.0042 35.1734 64.5235 35.5563 64.9064C35.9392 65.2893 36.4585 65.5044 37 65.5044C37.5415 65.5044 38.0608 65.2893 38.4437 64.9064C38.8266 64.5235 39.0417 64.0042 39.0417 63.4627V7.13316L49.8135 17.905C50.0025 18.0955 50.2274 18.2467 50.4751 18.3499C50.7229 18.453 50.9886 18.5062 51.257 18.5062C51.5253 18.5062 51.791 18.453 52.0388 18.3499C52.2865 18.2467 52.5114 18.0955 52.7004 17.905C53.0832 17.5221 53.2982 17.0029 53.2982 16.4615C53.2982 15.9202 53.0832 15.4009 52.7004 15.0181L38.4455 0.763158C38.0713 0.391851 37.5679 0.179687 37.0408 0.171075L37 0.166992L36.9714 0.171075C36.4393 0.176746 35.9306 0.390778 35.5545 0.767242L21.3037 15.0181C21.1087 15.2064 20.9531 15.4317 20.8461 15.6808C20.7391 15.9299 20.6828 16.1978 20.6804 16.4689C20.6781 16.74 20.7297 17.0088 20.8324 17.2597C20.9351 17.5106 21.0867 17.7386 21.2784 17.9303C21.4701 18.122 21.698 18.2736 21.9489 18.3763C22.1998 18.4789 22.4687 18.5306 22.7398 18.5282C23.0109 18.5259 23.2788 18.4695 23.5279 18.3625C23.777 18.2555 24.0022 18.1 24.1906 17.905" fill="#07C093"/>
</svg>
