<svg width="16" height="15" viewBox="0 0 16 15" fill="none" xmlns="http://www.w3.org/2000/svg">
<g clip-path="url(#clip0_2501_1173)">
<path d="M0.987305 6.6886C0.987305 5.84166 1.67467 5.1543 2.5216 5.1543H3.83672C4.01111 5.1543 4.17836 5.22357 4.30168 5.34689C4.42499 5.47021 4.49427 5.63746 4.49427 5.81185C4.49427 5.98625 4.42499 6.1535 4.30168 6.27682C4.17836 6.40013 4.01111 6.46941 3.83672 6.46941H2.5216C2.46347 6.46941 2.40772 6.4925 2.36662 6.53361C2.32551 6.57471 2.30242 6.63046 2.30242 6.6886V13.2642C2.30242 13.3851 2.40061 13.4833 2.5216 13.4833H9.09717C9.1553 13.4833 9.21105 13.4603 9.25215 13.4191C9.29326 13.378 9.31635 13.3223 9.31635 13.2642V11.949C9.31635 11.7747 9.38563 11.6074 9.50895 11.4841C9.63226 11.3608 9.79951 11.2915 9.97391 11.2915C10.1483 11.2915 10.3156 11.3608 10.4389 11.4841C10.5622 11.6074 10.6315 11.7747 10.6315 11.949V13.2642C10.6315 13.6711 10.4698 14.0613 10.1821 14.3491C9.89434 14.6368 9.50409 14.7985 9.09717 14.7985H2.5216C2.11468 14.7985 1.72443 14.6368 1.43669 14.3491C1.14895 14.0613 0.987305 13.6711 0.987305 13.2642V6.6886Z" fill="#058F6F"/>
<path d="M5.37109 2.30383C5.37109 1.4569 6.05846 0.769531 6.90539 0.769531H13.481C14.3279 0.769531 15.0153 1.4569 15.0153 2.30383V8.87939C15.0153 9.28631 14.8536 9.67657 14.5659 9.96431C14.2781 10.252 13.8879 10.4137 13.481 10.4137H6.90539C6.49847 10.4137 6.10822 10.252 5.82048 9.96431C5.53274 9.67657 5.37109 9.28631 5.37109 8.87939V2.30383ZM6.90539 2.08464C6.84726 2.08464 6.79151 2.10774 6.7504 2.14884C6.7093 2.18995 6.68621 2.2457 6.68621 2.30383V8.87939C6.68621 9.00038 6.7844 9.09858 6.90539 9.09858H13.481C13.5391 9.09858 13.5948 9.07549 13.6359 9.03438C13.677 8.99328 13.7001 8.93752 13.7001 8.87939V2.30383C13.7001 2.2457 13.677 2.18995 13.6359 2.14884C13.5948 2.10774 13.5391 2.08464 13.481 2.08464H6.90539Z" fill="#058F6F"/>
</g>
<defs>
<clipPath id="clip0_2501_1173">
<rect width="14.0279" height="14.0279" fill="white" transform="translate(0.987305 0.769531)"/>
</clipPath>
</defs>
</svg>
