<svg width="28" height="28" viewBox="0 0 28 28" fill="none" xmlns="http://www.w3.org/2000/svg">
<path d="M13.3362 9.82616L13.3359 9.82638L11.4063 11.5577L10.9962 11.9256L11.1507 12.4544C11.4249 13.3929 11.808 14.2962 12.292 15.1458L12.2967 15.154L12.3015 15.1621C12.8087 16.0092 13.4198 16.7896 14.1206 17.4851L14.4931 17.8547L14.9946 17.7002L17.4936 16.9302L17.4938 16.9301C18.5632 16.6004 19.7242 16.9422 20.4253 17.7768L20.4254 17.7769L21.8487 19.4709L21.8511 19.4737C22.2803 19.9802 22.4955 20.634 22.4511 21.2965C22.4067 21.959 22.106 22.5782 21.613 23.0229L21.6129 23.0229L21.6091 23.0263C19.5068 24.9448 16.4137 25.4818 14.1672 23.7176C11.8989 21.9334 9.98022 19.7448 8.50826 17.2624L8.50679 17.2599C7.03347 14.7937 6.047 12.0678 5.60085 9.22986C5.17619 6.48124 7.17355 4.14867 9.93122 3.32434L9.93186 3.32415C11.3113 2.91069 12.765 3.62563 13.2594 4.91744L13.2595 4.91751L14.0409 6.95853C14.0409 6.95863 14.041 6.95872 14.041 6.95882C14.4238 7.96141 14.1512 9.09549 13.3362 9.82616Z" stroke="#4F4F4F" stroke-width="1.75"/>
</svg>
