<svg width="25" height="26" viewBox="0 0 25 26" fill="none" xmlns="http://www.w3.org/2000/svg">
<path d="M11.8175 9.20921L11.8177 9.20899C12.5146 8.58417 12.747 7.61546 12.4201 6.75945C12.4201 6.75942 12.4201 6.75938 12.4201 6.75934L11.7239 4.94106L11.7239 4.94099C11.3018 3.83806 10.0583 3.22443 8.87591 3.57884L8.87528 3.57903C6.44802 4.30459 4.71565 6.34747 5.08431 8.73411C5.4799 11.2503 6.35455 13.6672 7.66085 15.8539L7.66233 15.8563C8.9676 18.0576 10.6689 19.9984 12.6804 21.5806L11.8175 9.20921ZM11.8175 9.20921L10.0983 10.7517L9.68829 11.1195M11.8175 9.20921L9.68829 11.1195M9.68829 11.1195L9.84278 11.6483M9.68829 11.1195L9.84278 11.6483M9.84278 11.6483C10.0892 12.4916 10.4333 13.3033 10.8682 14.0666L10.8729 14.0748M9.84278 11.6483L10.8729 14.0748M10.8729 14.0748L10.8778 14.0829M10.8729 14.0748L10.8778 14.0829M10.8778 14.0829C11.3337 14.8445 11.883 15.546 12.5131 16.1712L12.8855 16.5408M10.8778 14.0829L12.8855 16.5408M12.8855 16.5408L13.387 16.3863M12.8855 16.5408L13.387 16.3863M13.387 16.3863L15.6134 15.7003L15.6136 15.7003M13.387 16.3863L15.6136 15.7003M15.6136 15.7003C16.5303 15.4176 17.5245 15.711 18.1241 16.4247L18.1241 16.4248M15.6136 15.7003L18.1241 16.4248M18.1241 16.4248L19.3922 17.934L19.3922 17.934M18.1241 16.4248L19.3922 17.934M19.3922 17.934L19.3946 17.9368M19.3922 17.934L19.3946 17.9368M19.3946 17.9368C19.761 18.3692 19.9446 18.9272 19.9067 19.4927C19.8688 20.0581 19.6122 20.5866 19.1913 20.9662L19.1913 20.9662M19.3946 17.9368L19.1913 20.9662M19.1913 20.9662L19.1875 20.9696M19.1913 20.9662L19.1875 20.9696M19.1875 20.9696C17.3384 22.657 14.6353 23.1159 12.6808 21.581L19.1875 20.9696Z" stroke="#4F4F4F" stroke-width="1.75"/>
</svg>
