<svg width="25" height="26" viewBox="0 0 25 26" fill="none" xmlns="http://www.w3.org/2000/svg">
<path d="M17.8735 7.62884C17.4673 7.2225 17.2295 6.6778 17.2076 6.10366C17.1857 5.52952 17.3813 4.96828 17.7554 4.53216C17.7863 4.49589 17.8024 4.44927 17.8004 4.40164C17.7984 4.35401 17.7785 4.30889 17.7446 4.27533L15.5898 2.1181C15.5542 2.0825 15.5059 2.0625 15.4556 2.0625C15.4052 2.0625 15.3569 2.0825 15.3213 2.1181L11.8867 5.55267C11.76 5.67934 11.6645 5.83382 11.6079 6.00384C11.5515 6.17424 11.4561 6.32915 11.3294 6.45629C11.2027 6.58342 11.0481 6.67928 10.8779 6.73627C10.7078 6.79295 10.5532 6.8884 10.4263 7.01507L1.61815 15.8212C1.58255 15.8568 1.56255 15.9051 1.56255 15.9555C1.56255 16.0059 1.58255 16.0542 1.61815 16.0898L3.77294 18.2446C3.8065 18.2784 3.85162 18.2983 3.89925 18.3003C3.94688 18.3023 3.9935 18.2862 4.02978 18.2553C4.4658 17.8808 5.02717 17.6849 5.6015 17.7067C6.17584 17.7284 6.72075 17.9664 7.12716 18.3728C7.53357 18.7792 7.77148 19.3241 7.79326 19.8984C7.81504 20.4728 7.61908 21.0341 7.24462 21.4702C7.21368 21.5064 7.1976 21.553 7.19959 21.6007C7.20158 21.6483 7.2215 21.6934 7.25536 21.727L9.41015 23.8818C9.44577 23.9174 9.49406 23.9374 9.54443 23.9374C9.59479 23.9374 9.64308 23.9174 9.6787 23.8818L18.4873 15.0737C18.614 14.9468 18.7094 14.7921 18.7661 14.622C18.8225 14.4516 18.9179 14.2967 19.0446 14.1696C19.1713 14.0424 19.3259 13.9466 19.4961 13.8896C19.6661 13.833 19.8206 13.7375 19.9473 13.6108L23.3818 10.1762C23.4174 10.1406 23.4374 10.0923 23.4374 10.0419C23.4374 9.99157 23.4174 9.94327 23.3818 9.90765L21.227 7.75287C21.1935 7.71901 21.1484 7.69909 21.1007 7.69709C21.0531 7.6951 21.0065 7.71119 20.9702 7.74213C20.5347 8.11682 19.9738 8.31331 19.3997 8.29231C18.8255 8.2713 18.2805 8.03436 17.8735 7.62884Z" stroke="#4F4F4F" stroke-width="1.75" stroke-miterlimit="10"/>
<path d="M12.2315 7.35693L11.4253 6.55078M14.3809 9.50635L13.8433 8.96924M16.5303 11.6562L15.9932 11.1187M18.9487 14.0742L18.1426 13.2681" stroke="#4F4F4F" stroke-width="1.75" stroke-miterlimit="10" stroke-linecap="round"/>
</svg>
