<svg width="25" height="25" viewBox="0 0 25 25" fill="none" xmlns="http://www.w3.org/2000/svg">
<path d="M10.92 3.38086C9.445 3.38086 8.0031 3.81826 6.77666 4.63774C5.55022 5.45722 4.59433 6.62197 4.02986 7.98472C3.46539 9.34747 3.3177 10.847 3.60546 12.2937C3.89323 13.7404 4.60352 15.0692 5.64652 16.1122C6.68952 17.1552 8.01838 17.8655 9.46507 18.1533C10.9117 18.441 12.4113 18.2934 13.774 17.7289C15.1368 17.1644 16.3015 16.2085 17.121 14.9821C17.9405 13.7556 18.3779 12.3137 18.3779 10.8387C18.3778 8.86081 17.592 6.96395 16.1934 5.56536C14.7948 4.16676 12.8979 3.38099 10.92 3.38086Z" stroke="#09F1B9" stroke-width="2.65861" stroke-miterlimit="10"/>
<path d="M16.4844 16.4004L21.6929 21.6089" stroke="#09F1B9" stroke-width="2.65861" stroke-miterlimit="10" stroke-linecap="round"/>
</svg>
