<svg width="108" height="35" viewBox="0 0 108 35" fill="none" xmlns="http://www.w3.org/2000/svg">
<rect x="0.5" y="0.5" width="107" height="34" rx="16.5" fill="#0F0F0F"/>
<rect x="0.5" y="0.5" width="107" height="34" rx="16.5" stroke="#09F1B9"/>
<path d="M18.9863 15.0293C18.9727 17.2031 20.2305 19.418 22.0625 20.3066L21.2559 21.3457C19.9229 20.6553 18.8906 19.2812 18.3574 17.6406C17.8037 19.3906 16.7305 20.8535 15.3359 21.5781L14.5293 20.5254C16.416 19.623 17.6875 17.2715 17.6875 15.0293V12.9375H18.9863V15.0293ZM24.2773 11.9121V16.793H26.2461V17.9004H24.2773V24.1621H22.9785V11.9121H24.2773ZM31.373 14.4688C31.373 16.0547 32.5488 17.5449 34.4355 18.1465L33.7656 19.1582C32.3574 18.6934 31.291 17.7295 30.7441 16.5059C30.1904 17.8389 29.1035 18.8916 27.6406 19.4043L26.9707 18.3789C28.8711 17.7363 30.0469 16.1504 30.0605 14.4688V13.9355H27.3125V12.8828H34.0664V13.9355H31.373V14.4688ZM36.9922 11.9258V20.8672H35.6934V11.9258H36.9922ZM37.3613 22.8496V23.9023H28.9805V20.0195H30.293V22.8496H37.3613ZM53.5625 21.5508V22.6309H42.3516V21.5508H47.2871V18.7207H43.6367V12.8965H52.2227V18.7207H48.5723V21.5508H53.5625ZM44.8945 13.9355V17.6953H50.9512V13.9355H44.8945ZM64.2676 16.4238V17.4492H55.9551V12.6094H64.1172V13.6621H57.2676V16.4238H64.2676ZM65.6484 18.9395V19.9922H60.6445V24.1348H59.373V19.9922H54.4375V18.9395H65.6484ZM81.1797 21.5645V22.6445H69.9688V21.5645H74.9043V19.0488H71.2539V12.7461H72.5527V14.8516H78.5684V12.7461H79.8535V19.0488H76.1895V21.5645H81.1797ZM72.5527 17.9961H78.5684V15.9043H72.5527V17.9961ZM92.2539 11.9121V24.1621H90.9414V11.9121H92.2539ZM88.6035 13.2246C88.6035 16.8066 87.0723 19.9238 82.875 21.9336L82.1914 20.8809C85.4521 19.3291 87.0381 17.1211 87.291 14.2637H82.7793V13.2246H88.6035Z" fill="#09F1B9"/>
</svg>
