<svg width="36" height="36" viewBox="0 0 36 36" fill="none" xmlns="http://www.w3.org/2000/svg">
<path d="M24.3969 29.405L14.0222 18.8638C13.7946 18.6338 13.667 18.3233 13.667 17.9998C13.667 17.6762 13.7946 17.3658 14.0222 17.1358L24.3947 6.59451C24.6221 6.36308 24.7495 6.0516 24.7495 5.72713C24.7495 5.40267 24.6221 5.09118 24.3947 4.85976C24.2836 4.7458 24.1508 4.65523 24.0041 4.5934C23.8575 4.53156 23.7 4.4997 23.5408 4.4997C23.3817 4.4997 23.2241 4.53156 23.0775 4.5934C22.9308 4.65523 22.798 4.7458 22.6869 4.85976L12.3144 15.3988C11.6328 16.0929 11.251 17.0269 11.251 17.9998C11.251 18.9726 11.6328 19.9066 12.3144 20.6008L22.6869 31.1398C22.7981 31.2541 22.931 31.3449 23.0778 31.407C23.2247 31.469 23.3825 31.501 23.5419 31.501C23.7014 31.501 23.8592 31.469 24.006 31.407C24.1529 31.3449 24.2858 31.2541 24.3969 31.1398C24.6244 30.9083 24.7518 30.5968 24.7518 30.2724C24.7518 29.9479 24.6244 29.6364 24.3969 29.405Z" fill="#696969"/>
</svg>
