<svg width="41" height="41" viewBox="0 0 41 41" fill="none" xmlns="http://www.w3.org/2000/svg">
<rect x="0.0976562" width="40.9014" height="40.9014" rx="20.4507" fill="white"/>
<path d="M29.8301 13.1895H25.4004V12.1348C25.4004 11.5194 25.1559 10.9292 24.7208 10.4941C24.2856 10.0589 23.6955 9.81445 23.0801 9.81445H18.0176C17.4022 9.81445 16.812 10.0589 16.3769 10.4941C15.9417 10.9292 15.6973 11.5194 15.6973 12.1348V13.1895H11.2676C11.0997 13.1895 10.9388 13.2561 10.8201 13.3748C10.7014 13.4935 10.6348 13.6544 10.6348 13.8223C10.6348 13.9901 10.7014 14.1511 10.8201 14.2697C10.9388 14.3884 11.0997 14.4551 11.2676 14.4551H12.3223V29.8535C12.3223 30.2451 12.4778 30.6207 12.7547 30.8976C13.0317 31.1745 13.4072 31.3301 13.7988 31.3301H27.2988C27.6904 31.3301 28.066 31.1745 28.3429 30.8976C28.6198 30.6207 28.7754 30.2451 28.7754 29.8535V14.4551H29.8301C29.9979 14.4551 30.1589 14.3884 30.2775 14.2697C30.3962 14.1511 30.4629 13.9901 30.4629 13.8223C30.4629 13.6544 30.3962 13.4935 30.2775 13.3748C30.1589 13.2561 29.9979 13.1895 29.8301 13.1895ZM16.9629 12.1348C16.9629 11.855 17.074 11.5868 17.2718 11.389C17.4696 11.1912 17.7379 11.0801 18.0176 11.0801H23.0801C23.3598 11.0801 23.6281 11.1912 23.8259 11.389C24.0236 11.5868 24.1348 11.855 24.1348 12.1348V13.1895H16.9629V12.1348ZM27.5098 29.8535C27.5098 29.9095 27.4875 29.9631 27.448 30.0027C27.4084 30.0422 27.3548 30.0645 27.2988 30.0645H13.7988C13.7429 30.0645 13.6892 30.0422 13.6497 30.0027C13.6101 29.9631 13.5879 29.9095 13.5879 29.8535V14.4551H27.5098V29.8535ZM18.6504 18.8848V25.6348C18.6504 25.8026 18.5837 25.9636 18.465 26.0822C18.3464 26.2009 18.1854 26.2676 18.0176 26.2676C17.8497 26.2676 17.6888 26.2009 17.5701 26.0822C17.4514 25.9636 17.3848 25.8026 17.3848 25.6348V18.8848C17.3848 18.7169 17.4514 18.556 17.5701 18.4373C17.6888 18.3186 17.8497 18.252 18.0176 18.252C18.1854 18.252 18.3464 18.3186 18.465 18.4373C18.5837 18.556 18.6504 18.7169 18.6504 18.8848ZM23.7129 18.8848V25.6348C23.7129 25.8026 23.6462 25.9636 23.5275 26.0822C23.4089 26.2009 23.2479 26.2676 23.0801 26.2676C22.9122 26.2676 22.7513 26.2009 22.6326 26.0822C22.5139 25.9636 22.4473 25.8026 22.4473 25.6348V18.8848C22.4473 18.7169 22.5139 18.556 22.6326 18.4373C22.7513 18.3186 22.9122 18.252 23.0801 18.252C23.2479 18.252 23.4089 18.3186 23.5275 18.4373C23.6462 18.556 23.7129 18.7169 23.7129 18.8848Z" fill="#0F0F0F"/>
</svg>
