<svg width="29" height="29" viewBox="0 0 29 29" fill="none" xmlns="http://www.w3.org/2000/svg">
<path d="M14.5199 25.3947L14.5199 25.3946L14.5148 25.3974C14.5103 25.3998 14.5052 25.4011 14.5 25.4011C14.4948 25.4011 14.4897 25.3998 14.4852 25.3974L14.4801 25.3947C14.2593 25.2778 11.2606 23.6435 8.33029 21.0773C5.35399 18.4708 2.68775 15.1104 2.6875 11.5552C2.68946 9.925 3.33792 8.36213 4.49065 7.2094C5.64338 6.05667 7.20626 5.40821 8.83645 5.40625C10.9198 5.4064 12.7003 6.29797 13.8003 7.76291L14.5 8.69484L15.1997 7.76291C16.2997 6.29796 18.0802 5.4064 20.1636 5.40625C21.7937 5.40821 23.3566 6.05667 24.5093 7.2094C25.6622 8.36225 26.3107 9.92531 26.3125 11.5557C26.312 15.1107 23.6459 18.4709 20.6697 21.0773C17.7394 23.6435 14.7407 25.2778 14.5199 25.3947Z" stroke="#0F0F0F" stroke-width="1.75"/>
</svg>
