<svg width="29" height="29" viewBox="0 0 29 29" fill="none" xmlns="http://www.w3.org/2000/svg">
<path d="M27.1875 11.5547C27.1875 19.4844 15.43 25.9029 14.9293 26.168C14.7974 26.239 14.6499 26.2761 14.5 26.2761C14.3501 26.2761 14.2026 26.239 14.0707 26.168C13.57 25.9029 1.8125 19.4844 1.8125 11.5547C1.8146 9.6926 2.55524 7.90738 3.87194 6.59069C5.18863 5.27399 6.97385 4.53335 8.83594 4.53125C11.1752 4.53125 13.2233 5.53719 14.5 7.23754C15.7767 5.53719 17.8248 4.53125 20.1641 4.53125C22.0261 4.53335 23.8114 5.27399 25.1281 6.59069C26.4448 7.90738 27.1854 9.6926 27.1875 11.5547Z" fill="#F01569"/>
</svg>
