<svg width="185" height="138" viewBox="0 0 185 138" fill="none" xmlns="http://www.w3.org/2000/svg">
<rect x="0.890625" y="0.75" width="183.359" height="135.744" rx="13.25" fill="white"/>
<rect x="0.890625" y="0.75" width="183.359" height="135.744" rx="13.25" stroke="#07C093" stroke-width="1.5"/>
<path d="M78.73 109.741V110.734H66.4843V109.741H72.0054V106.492H73.1938V109.741H78.73ZM73.1938 101.617C73.1938 103.754 75.8416 105.589 78.1433 105.965L77.6619 106.898C75.6159 106.499 73.4571 105.198 72.6071 103.332C71.7421 105.205 69.5908 106.537 67.5825 106.958L67.086 106.01C69.3426 105.619 71.9753 103.754 71.9753 101.617V101.286H67.4922V100.294H77.6769V101.286H73.1938V101.617ZM90.8854 99.075V107.003H89.697V104.897H86.5678V106.04H80.4299V100.098H86.5678V101.256H89.697V99.075H90.8854ZM81.6034 101.061V105.078H85.4095V101.061H81.6034ZM86.4475 107.394C89.2306 107.394 90.9306 108.312 90.9306 109.922C90.9306 111.516 89.2306 112.419 86.4475 112.419C83.6644 112.419 81.9644 111.516 81.9644 109.922C81.9644 108.312 83.6644 107.394 86.4475 107.394ZM86.4475 108.312C84.4015 108.327 83.1228 108.914 83.1378 109.922C83.1228 110.884 84.4015 111.486 86.4475 111.486C88.4935 111.486 89.7571 110.884 89.7571 109.922C89.7571 108.914 88.4935 108.327 86.4475 108.312ZM86.5678 103.904H89.697V102.234H86.5678V103.904ZM97.6401 101.617C97.6401 103.363 98.9489 104.927 100.92 105.574L100.363 106.507C98.8211 106.003 97.6552 104.935 97.0835 103.588C96.5043 105.123 95.2707 106.319 93.6685 106.898L93.0668 105.95C95.0676 105.273 96.4667 103.543 96.4817 101.617V101.046H93.4278V100.068H100.649V101.046H97.6401V101.617ZM103.567 99.075V102.49H105.583V103.483H103.567V107.154H102.394V99.075H103.567ZM99.2799 107.515C102.033 107.515 103.688 108.417 103.688 109.952C103.688 111.516 102.033 112.419 99.2799 112.419C96.5269 112.419 94.842 111.516 94.842 109.952C94.842 108.417 96.5269 107.515 99.2799 107.515ZM99.2799 108.462C97.264 108.462 96.0154 109.019 96.0304 109.952C96.0154 110.915 97.264 111.471 99.2799 111.471C101.311 111.471 102.544 110.915 102.544 109.952C102.544 109.019 101.311 108.462 99.2799 108.462ZM117.453 99.075V112.479H116.264V99.075H117.453ZM108.381 100.218V103.754H112.368V100.218H113.526V109.245H107.208V100.218H108.381ZM108.381 108.252H112.368V104.701H108.381V108.252Z" fill="#07C093"/>
<path d="M90.2515 31.249V30.249H89.2515H80.8765V24.749H105.126V30.249H96.7515H95.7515V31.249V34.999V35.999H96.7515H125.751V41.499H60.2515V35.999H89.2515H90.2515V34.999V31.249ZM70.9267 49.7461L70.9273 49.7461C72.9665 49.6884 74.8111 50.653 75.9173 52.3162C77.0178 53.971 77.4402 56.4072 76.4188 59.3624L76.4168 59.3685L71.9028 72.7068L55.828 63.4232L65.125 52.8493L65.125 52.8493L65.1292 52.8445C66.9941 50.6958 69.0783 49.7973 70.9267 49.7461ZM115.076 49.7461L115.076 49.7461C116.921 49.7973 119.005 50.6925 120.874 52.8446L120.878 52.8492L130.175 63.4267L114.1 72.7071L109.582 59.3682L109.58 59.3625C108.559 56.4055 108.982 53.9694 110.084 52.3152C111.19 50.6524 113.036 49.6884 115.076 49.7461ZM86.4821 57.6951L86.4833 57.689C87.3441 53.24 90.2711 51.2278 93.0015 51.2278C95.7318 51.2278 98.6588 53.24 99.5197 57.689L99.5209 57.6951L102.282 71.499H83.7213L86.4821 57.6951Z" stroke="#07C093" stroke-width="2"/>
</svg>
