<svg width="26" height="26" viewBox="0 0 26 26" fill="none" xmlns="http://www.w3.org/2000/svg">
<path d="M10.833 14.083C11.2982 14.7049 11.8918 15.2196 12.5734 15.592C13.2551 15.9644 14.0088 16.1858 14.7835 16.2413C15.5583 16.2968 16.3359 16.185 17.0636 15.9136C17.7914 15.6421 18.4522 15.2173 19.0013 14.668L22.2513 11.418C23.238 10.3964 23.784 9.02811 23.7717 7.60788C23.7593 6.18765 23.1897 4.82908 22.1854 3.82479C21.1811 2.82049 19.8225 2.25083 18.4023 2.23849C16.982 2.22614 15.6138 2.77211 14.5922 3.7588L12.7288 5.6113" stroke="#0F0F0F" stroke-width="2.16667" stroke-linecap="round" stroke-linejoin="round"/>
<path d="M15.1664 11.9163C14.7012 11.2944 14.1076 10.7797 13.426 10.4073C12.7443 10.0349 11.9906 9.81346 11.2159 9.75798C10.4411 9.70249 9.66351 9.81428 8.93577 10.0857C8.20803 10.3572 7.54719 10.782 6.99806 11.3313L3.74806 14.5813C2.76137 15.6029 2.2154 16.9712 2.22774 18.3914C2.24009 19.8117 2.80975 21.1702 3.81404 22.1745C4.81834 23.1788 6.17691 23.7485 7.59714 23.7608C9.01737 23.7732 10.3856 23.2272 11.4072 22.2405L13.2597 20.388" stroke="#0F0F0F" stroke-width="2.16667" stroke-linecap="round" stroke-linejoin="round"/>
</svg>
