<svg width="185" height="138" viewBox="0 0 185 138" fill="none" xmlns="http://www.w3.org/2000/svg">
<rect x="0.890625" y="0.75" width="183.359" height="135.744" rx="13.25" fill="white"/>
<rect x="0.890625" y="0.75" width="183.359" height="135.744" rx="13.25" stroke="#E8E8E8" stroke-width="1.5"/>
<path d="M62.5879 101.482C62.5729 103.182 63.9569 104.686 65.9126 105.288L65.356 106.221C63.7989 105.724 62.5804 104.701 62.0012 103.347C61.4145 104.814 60.1583 105.92 58.5712 106.447L57.9544 105.514C59.9703 104.882 61.3844 103.317 61.3994 101.482V101.317H58.3606V100.324H65.5967V101.317H62.5879V101.482ZM62.5879 105.89V108.568C63.8065 108.523 65.0476 108.425 66.1984 108.267L66.2737 109.139C63.4003 109.651 60.2411 109.651 57.9093 109.651L57.7287 108.658C58.8119 108.658 60.0756 108.658 61.3994 108.613V105.89H62.5879ZM70.4107 104.641V105.649H68.2294V112.449H67.0559V99.075H68.2294V104.641H70.4107ZM75.7663 101.226C75.7663 103.077 77.1353 104.777 79.076 105.439L78.4291 106.386C76.9398 105.837 75.7814 104.694 75.2097 103.272C74.6456 104.852 73.4421 106.085 71.87 106.702L71.2231 105.724C73.254 105.002 74.5929 103.242 74.608 101.181V99.767H75.7663V101.226ZM82.2954 107.725V112.449H81.1069V108.673H73.2991V107.725H82.2954ZM82.2954 99.075V106.988H81.1069V102.881H78.1282V101.888H81.1069V99.075H82.2954ZM90.0129 100.354V103.618H92.9164V100.354H94.0146V109.109H88.8846V100.354H90.0129ZM90.0129 108.131H92.9164V104.581H90.0129V108.131ZM99.8516 99.075V112.449H98.7082V105.363H96.8428V111.772H95.7145V99.3609H96.8428V104.386H98.7082V99.075H99.8516ZM112.729 99.075V112.449H111.541V99.075H112.729ZM106.636 103.438C106.636 105.679 108.201 107.846 110.217 108.703L109.555 109.621C108.013 108.936 106.704 107.485 106.08 105.709C105.478 107.59 104.177 109.132 102.635 109.861L101.973 108.944C103.959 108.041 105.478 105.785 105.478 103.438V102.37H102.334V101.407H105.463V99.3308H106.636V101.407H109.75V102.37H106.636V103.438ZM125.817 105.348V106.311H121.68V109.771H127.262V110.764H115.016V109.771H120.522V106.311H116.58V100.173H125.682V101.136H117.769V105.348H125.817Z" fill="#828282"/>
<path d="M112.812 54.5469H103.672V44.3906H108.75C109.558 44.3906 110.333 44.0696 110.904 43.4982C111.476 42.9268 111.797 42.1518 111.797 41.3438V29.1562C111.797 28.3482 111.476 27.5732 110.904 27.0018C110.333 26.4304 109.558 26.1094 108.75 26.1094H76.25C75.4419 26.1094 74.6669 26.4304 74.0955 27.0018C73.5241 27.5732 73.2031 28.3482 73.2031 29.1562V41.3438C73.2031 42.1518 73.5241 42.9268 74.0955 43.4982C74.6669 44.0696 75.4419 44.3906 76.25 44.3906H81.3281V54.5469H72.1875C71.3794 54.5469 70.6044 54.8679 70.033 55.4393C69.4616 56.0107 69.1406 56.7857 69.1406 57.5938V61.6562C69.1406 62.4643 69.4616 63.2393 70.033 63.8107C70.6044 64.3821 71.3794 64.7031 72.1875 64.7031H75.2344V75.875C75.2344 76.1444 75.3414 76.4027 75.5318 76.5932C75.7223 76.7836 75.9806 76.8906 76.25 76.8906C76.5194 76.8906 76.7777 76.7836 76.9682 76.5932C77.1586 76.4027 77.2656 76.1444 77.2656 75.875V64.7031H107.734V75.875C107.734 76.1444 107.841 76.4027 108.032 76.5932C108.222 76.7836 108.481 76.8906 108.75 76.8906C109.019 76.8906 109.278 76.7836 109.468 76.5932C109.659 76.4027 109.766 76.1444 109.766 75.875V64.7031H112.812C113.621 64.7031 114.396 64.3821 114.967 63.8107C115.538 63.2393 115.859 62.4643 115.859 61.6562V57.5938C115.859 56.7857 115.538 56.0107 114.967 55.4393C114.396 54.8679 113.621 54.5469 112.812 54.5469ZM75.2344 41.3438V29.1562C75.2344 28.8869 75.3414 28.6286 75.5318 28.4381C75.7223 28.2476 75.9806 28.1406 76.25 28.1406H108.75C109.019 28.1406 109.278 28.2476 109.468 28.4381C109.659 28.6286 109.766 28.8869 109.766 29.1562V41.3438C109.766 41.6131 109.659 41.8714 109.468 42.0619C109.278 42.2524 109.019 42.3594 108.75 42.3594H76.25C75.9806 42.3594 75.7223 42.2524 75.5318 42.0619C75.3414 41.8714 75.2344 41.6131 75.2344 41.3438ZM83.3594 44.3906H101.641V54.5469H83.3594V44.3906ZM113.828 61.6562C113.828 61.9256 113.721 62.1839 113.531 62.3744C113.34 62.5649 113.082 62.6719 112.812 62.6719H72.1875C71.9181 62.6719 71.6598 62.5649 71.4693 62.3744C71.2789 62.1839 71.1719 61.9256 71.1719 61.6562V57.5938C71.1719 57.3244 71.2789 57.0661 71.4693 56.8756C71.6598 56.6851 71.9181 56.5781 72.1875 56.5781H112.812C113.082 56.5781 113.34 56.6851 113.531 56.8756C113.721 57.0661 113.828 57.3244 113.828 57.5938V61.6562Z" fill="#EBEBEB"/>
</svg>
