<svg width="186" height="138" viewBox="0 0 186 138" fill="none" xmlns="http://www.w3.org/2000/svg">
<rect x="1.32031" y="0.75" width="183.359" height="135.744" rx="13.25" fill="white"/>
<rect x="1.32031" y="0.75" width="183.359" height="135.744" rx="13.25" stroke="#E8E8E8" stroke-width="1.5"/>
<path d="M73.0067 99.3759C75.9102 99.3759 77.7305 100.309 77.7305 101.918C77.7305 103.498 75.9102 104.416 73.0067 104.416C70.1033 104.416 68.2679 103.498 68.2679 101.918C68.2679 100.309 70.1033 99.3759 73.0067 99.3759ZM73.0067 100.324C70.8404 100.324 69.4714 100.925 69.4865 101.918C69.4714 102.896 70.8404 103.468 73.0067 103.483C75.143 103.468 76.527 102.896 76.527 101.918C76.527 100.925 75.143 100.324 73.0067 100.324ZM77.6102 107.876V112.268H68.4033V107.876H77.6102ZM69.5767 108.823V111.306H76.4518V108.823H69.5767ZM79.0995 105.574V106.552H66.914V105.574H79.0995ZM92.6691 101.422V102.4H90.6833V104.25H92.6691V105.243H90.6833V107.71H89.5099V99.075H90.6833V101.422H92.6691ZM86.4559 107.8C89.1789 107.8 90.8337 108.658 90.8337 110.117C90.8337 111.576 89.1789 112.419 86.4559 112.419C83.733 112.419 82.0631 111.576 82.0782 110.117C82.0631 108.658 83.733 107.8 86.4559 107.8ZM86.4559 108.733C84.4551 108.733 83.2366 109.23 83.2516 110.117C83.2366 110.99 84.4551 111.501 86.4559 111.501C88.4568 111.501 89.6603 110.99 89.6603 110.117C89.6603 109.23 88.4568 108.733 86.4559 108.733ZM88.2311 100.609V101.542H80.2579V100.609H83.6578V98.9697H84.8312V100.609H88.2311ZM84.2445 102.234C86.1701 102.234 87.4488 103.167 87.4639 104.596C87.4488 106.04 86.1701 106.958 84.2445 106.958C82.3038 106.958 81.0101 106.04 81.0251 104.596C81.0101 103.167 82.3038 102.234 84.2445 102.234ZM84.2445 103.122C82.9808 103.137 82.1384 103.724 82.1534 104.596C82.1384 105.469 82.9808 106.04 84.2445 106.04C85.4931 106.04 86.3356 105.469 86.3506 104.596C86.3356 103.724 85.4931 103.137 84.2445 103.122ZM98.0698 101.617C98.0698 103.363 99.3786 104.927 101.349 105.574L100.793 106.507C99.2508 106.003 98.0849 104.935 97.5132 103.588C96.934 105.123 95.7004 106.319 94.0982 106.898L93.4965 105.95C95.4973 105.273 96.8964 103.543 96.9114 101.617V101.046H93.8575V100.068H101.079V101.046H98.0698V101.617ZM103.997 99.075V102.49H106.013V103.483H103.997V107.154H102.824V99.075H103.997ZM99.7096 107.515C102.463 107.515 104.117 108.417 104.117 109.952C104.117 111.516 102.463 112.419 99.7096 112.419C96.9566 112.419 95.2717 111.516 95.2717 109.952C95.2717 108.417 96.9566 107.515 99.7096 107.515ZM99.7096 108.462C97.6937 108.462 96.4451 109.019 96.4601 109.952C96.4451 110.915 97.6937 111.471 99.7096 111.471C101.741 111.471 102.974 110.915 102.974 109.952C102.974 109.019 101.741 108.462 99.7096 108.462ZM117.883 99.075V112.479H116.694V99.075H117.883ZM108.811 100.218V103.754H112.798V100.218H113.956V109.245H107.638V100.218H108.811ZM108.811 108.252H112.798V104.701H108.811V108.252Z" fill="#828282"/>
<g clip-path="url(#clip0_1563_468)">
<path fill-rule="evenodd" clip-rule="evenodd" d="M87.5 29C87.5 28.2707 87.7897 27.5712 88.3055 27.0555C88.8212 26.5397 89.5207 26.25 90.25 26.25H98.5C99.2293 26.25 99.9288 26.5397 100.445 27.0555C100.96 27.5712 101.25 28.2707 101.25 29C101.25 29.7293 100.96 30.4288 100.445 30.9445C99.9288 31.4603 99.2293 31.75 98.5 31.75H90.25C89.5207 31.75 88.8212 31.4603 88.3055 30.9445C87.7897 30.4288 87.5 29.7293 87.5 29ZM87.5 40C87.5 39.2707 87.7897 38.5712 88.3055 38.0555C88.8212 37.5397 89.5207 37.25 90.25 37.25H98.5C99.2293 37.25 99.9288 37.5397 100.445 38.0555C100.96 38.5712 101.25 39.2707 101.25 40C101.25 40.7293 100.96 41.4288 100.445 41.9445C99.9288 42.4603 99.2293 42.75 98.5 42.75H90.25C89.5207 42.75 88.8212 42.4603 88.3055 41.9445C87.7897 41.4288 87.5 40.7293 87.5 40ZM106.75 40C106.75 39.2707 107.04 38.5712 107.555 38.0555C108.071 37.5397 108.771 37.25 109.5 37.25H117.75C118.479 37.25 119.179 37.5397 119.695 38.0555C120.21 38.5712 120.5 39.2707 120.5 40C120.5 40.7293 120.21 41.4288 119.695 41.9445C119.179 42.4603 118.479 42.75 117.75 42.75H109.5C108.771 42.75 108.071 42.4603 107.555 41.9445C107.04 41.4288 106.75 40.7293 106.75 40ZM68.25 51C68.25 50.2707 68.5397 49.5712 69.0555 49.0555C69.5712 48.5397 70.2707 48.25 71 48.25H79.25C79.9793 48.25 80.6788 48.5397 81.1945 49.0555C81.7103 49.5712 82 50.2707 82 51C82 51.7293 81.7103 52.4288 81.1945 52.9445C80.6788 53.4603 79.9793 53.75 79.25 53.75H71C70.2707 53.75 69.5712 53.4603 69.0555 52.9445C68.5397 52.4288 68.25 51.7293 68.25 51ZM87.5 51C87.5 50.2707 87.7897 49.5712 88.3055 49.0555C88.8212 48.5397 89.5207 48.25 90.25 48.25H98.5C99.2293 48.25 99.9288 48.5397 100.445 49.0555C100.96 49.5712 101.25 50.2707 101.25 51C101.25 51.7293 100.96 52.4288 100.445 52.9445C99.9288 53.4603 99.2293 53.75 98.5 53.75H90.25C89.5207 53.75 88.8212 53.4603 88.3055 52.9445C87.7897 52.4288 87.5 51.7293 87.5 51ZM106.75 51C106.75 50.2707 107.04 49.5712 107.555 49.0555C108.071 48.5397 108.771 48.25 109.5 48.25H117.75C118.479 48.25 119.179 48.5397 119.695 49.0555C120.21 49.5712 120.5 50.2707 120.5 51C120.5 51.7293 120.21 52.4288 119.695 52.9445C119.179 53.4603 118.479 53.75 117.75 53.75H109.5C108.771 53.75 108.071 53.4603 107.555 52.9445C107.04 52.4288 106.75 51.7293 106.75 51ZM68.25 62C68.25 61.2707 68.5397 60.5712 69.0555 60.0555C69.5712 59.5397 70.2707 59.25 71 59.25H79.25C79.9793 59.25 80.6788 59.5397 81.1945 60.0555C81.7103 60.5712 82 61.2707 82 62C82 62.7293 81.7103 63.4288 81.1945 63.9445C80.6788 64.4603 79.9793 64.75 79.25 64.75H71C70.2707 64.75 69.5712 64.4603 69.0555 63.9445C68.5397 63.4288 68.25 62.7293 68.25 62ZM87.5 62C87.5 61.2707 87.7897 60.5712 88.3055 60.0555C88.8212 59.5397 89.5207 59.25 90.25 59.25H98.5C99.2293 59.25 99.9288 59.5397 100.445 60.0555C100.96 60.5712 101.25 61.2707 101.25 62C101.25 62.7293 100.96 63.4288 100.445 63.9445C99.9288 64.4603 99.2293 64.75 98.5 64.75H90.25C89.5207 64.75 88.8212 64.4603 88.3055 63.9445C87.7897 63.4288 87.5 62.7293 87.5 62ZM106.75 62C106.75 61.2707 107.04 60.5712 107.555 60.0555C108.071 59.5397 108.771 59.25 109.5 59.25H117.75C118.479 59.25 119.179 59.5397 119.695 60.0555C120.21 60.5712 120.5 61.2707 120.5 62C120.5 62.7293 120.21 63.4288 119.695 63.9445C119.179 64.4603 118.479 64.75 117.75 64.75H109.5C108.771 64.75 108.071 64.4603 107.555 63.9445C107.04 63.4288 106.75 62.7293 106.75 62ZM68.25 73C68.25 72.2707 68.5397 71.5712 69.0555 71.0555C69.5712 70.5397 70.2707 70.25 71 70.25H79.25C79.9793 70.25 80.6788 70.5397 81.1945 71.0555C81.7103 71.5712 82 72.2707 82 73C82 73.7293 81.7103 74.4288 81.1945 74.9445C80.6788 75.4603 79.9793 75.75 79.25 75.75H71C70.2707 75.75 69.5712 75.4603 69.0555 74.9445C68.5397 74.4288 68.25 73.7293 68.25 73ZM87.5 73C87.5 72.2707 87.7897 71.5712 88.3055 71.0555C88.8212 70.5397 89.5207 70.25 90.25 70.25H98.5C99.2293 70.25 99.9288 70.5397 100.445 71.0555C100.96 71.5712 101.25 72.2707 101.25 73C101.25 73.7293 100.96 74.4288 100.445 74.9445C99.9288 75.4603 99.2293 75.75 98.5 75.75H90.25C89.5207 75.75 88.8212 75.4603 88.3055 74.9445C87.7897 74.4288 87.5 73.7293 87.5 73ZM106.75 73C106.75 72.2707 107.04 71.5712 107.555 71.0555C108.071 70.5397 108.771 70.25 109.5 70.25H117.75C118.479 70.25 119.179 70.5397 119.695 71.0555C120.21 71.5712 120.5 72.2707 120.5 73C120.5 73.7293 120.21 74.4288 119.695 74.9445C119.179 75.4603 118.479 75.75 117.75 75.75H109.5C108.771 75.75 108.071 75.4603 107.555 74.9445C107.04 74.4288 106.75 73.7293 106.75 73Z" fill="#E8E8E8"/>
</g>
<defs>
<clipPath id="clip0_1563_468">
<rect width="66" height="66" fill="white" transform="translate(60 18)"/>
</clipPath>
</defs>
</svg>
