<svg width="25" height="26" viewBox="0 0 25 26" fill="none" xmlns="http://www.w3.org/2000/svg">
<path d="M19.7913 4.66634H17.708V3.62467C17.708 3.34841 17.5983 3.08346 17.4029 2.8881C17.2076 2.69275 16.9426 2.58301 16.6663 2.58301C16.3901 2.58301 16.1251 2.69275 15.9298 2.8881C15.7344 3.08346 15.6247 3.34841 15.6247 3.62467V4.66634H9.37467V3.62467C9.37467 3.34841 9.26493 3.08346 9.06958 2.8881C8.87423 2.69275 8.60927 2.58301 8.33301 2.58301C8.05674 2.58301 7.79179 2.69275 7.59644 2.8881C7.40109 3.08346 7.29134 3.34841 7.29134 3.62467V4.66634H5.20801C4.37921 4.66634 3.58435 4.99558 2.9983 5.58163C2.41225 6.16768 2.08301 6.96254 2.08301 7.79134V20.2913C2.08301 21.1201 2.41225 21.915 2.9983 22.501C3.58435 23.0871 4.37921 23.4163 5.20801 23.4163H19.7913C20.6201 23.4163 21.415 23.0871 22.001 22.501C22.5871 21.915 22.9163 21.1201 22.9163 20.2913V7.79134C22.9163 6.96254 22.5871 6.16768 22.001 5.58163C21.415 4.99558 20.6201 4.66634 19.7913 4.66634ZM20.833 20.2913C20.833 20.5676 20.7233 20.8326 20.5279 21.0279C20.3326 21.2233 20.0676 21.333 19.7913 21.333H5.20801C4.93174 21.333 4.66679 21.2233 4.47144 21.0279C4.27609 20.8326 4.16634 20.5676 4.16634 20.2913V12.9997H20.833V20.2913ZM20.833 10.9163H4.16634V7.79134C4.16634 7.51507 4.27609 7.25012 4.47144 7.05477C4.66679 6.85942 4.93174 6.74967 5.20801 6.74967H7.29134V7.79134C7.29134 8.06761 7.40109 8.33256 7.59644 8.52791C7.79179 8.72326 8.05674 8.83301 8.33301 8.83301C8.60927 8.83301 8.87423 8.72326 9.06958 8.52791C9.26493 8.33256 9.37467 8.06761 9.37467 7.79134V6.74967H15.6247V7.79134C15.6247 8.06761 15.7344 8.33256 15.9298 8.52791C16.1251 8.72326 16.3901 8.83301 16.6663 8.83301C16.9426 8.83301 17.2076 8.72326 17.4029 8.52791C17.5983 8.33256 17.708 8.06761 17.708 7.79134V6.74967H19.7913C20.0676 6.74967 20.3326 6.85942 20.5279 7.05477C20.7233 7.25012 20.833 7.51507 20.833 7.79134V10.9163Z" fill="#4F4F4F"/>
</svg>
