<svg width="185" height="138" viewBox="0 0 185 138" fill="none" xmlns="http://www.w3.org/2000/svg">
<rect x="0.75" y="0.75" width="183.359" height="135.744" rx="13.25" fill="white"/>
<rect x="0.75" y="0.75" width="183.359" height="135.744" rx="13.25" stroke="#07C093" stroke-width="1.5"/>
<path d="M63.8012 107.53C66.6746 107.53 68.4949 108.432 68.4949 109.982C68.4949 111.516 66.6746 112.419 63.8012 112.419C60.9429 112.419 59.1226 111.516 59.1226 109.982C59.1226 108.432 60.9429 107.53 63.8012 107.53ZM63.8012 108.432C61.665 108.447 60.281 109.034 60.296 109.982C60.281 110.915 61.665 111.486 63.8012 111.486C65.9375 111.486 67.3065 110.915 67.3215 109.982C67.3065 109.034 65.9375 108.447 63.8012 108.432ZM68.3896 99.767V100.895C68.3896 101.978 68.3896 103.062 68.0135 104.446L66.8551 104.31C67.2162 102.926 67.2162 101.948 67.2162 100.895V100.73H59.2129V99.767H68.3896ZM69.9391 105.318V106.281H57.7686V105.318H62.8083V102.731H63.9667V105.318H69.9391ZM82.1548 99.0901V108.974H80.9663V105.363H77.5062C76.8894 106.153 75.8965 106.627 74.7532 106.627C72.7523 106.627 71.278 105.243 71.278 103.287C71.278 101.332 72.7523 99.9476 74.7532 99.9325C75.889 99.94 76.8593 100.406 77.4912 101.181H80.9663V99.0901H82.1548ZM82.5309 111.17V112.163H73.5647V107.936H74.7532V111.17H82.5309ZM74.7532 100.986C73.3842 101.001 72.4063 101.948 72.4063 103.287C72.4063 104.626 73.3842 105.574 74.7532 105.574C76.062 105.574 77.0699 104.626 77.0699 103.287C77.0699 101.948 76.062 101.001 74.7532 100.986ZM78.0327 102.159C78.1456 102.505 78.2133 102.881 78.2133 103.287C78.2133 103.678 78.1456 104.047 78.0327 104.386H80.9663V102.159H78.0327ZM88.9095 101.617C88.9095 103.363 90.2183 104.927 92.189 105.574L91.6324 106.507C90.0904 106.003 88.9245 104.935 88.3528 103.588C87.7736 105.123 86.54 106.319 84.9379 106.898L84.3361 105.95C86.337 105.273 87.736 103.543 87.7511 101.617V101.046H84.6972V100.068H91.9182V101.046H88.9095V101.617ZM94.8367 99.075V102.49H96.8526V103.483H94.8367V107.154H93.6633V99.075H94.8367ZM90.5492 107.515C93.3023 107.515 94.9571 108.417 94.9571 109.952C94.9571 111.516 93.3023 112.419 90.5492 112.419C87.7962 112.419 86.1113 111.516 86.1113 109.952C86.1113 108.417 87.7962 107.515 90.5492 107.515ZM90.5492 108.462C88.5334 108.462 87.2847 109.019 87.2998 109.952C87.2847 110.915 88.5334 111.471 90.5492 111.471C92.5802 111.471 93.8138 110.915 93.8138 109.952C93.8138 109.019 92.5802 108.462 90.5492 108.462ZM112.363 105.348V106.311H108.226V109.771H113.807V110.764H101.561V109.771H107.067V106.311H103.126V100.173H112.227V101.136H104.314V105.348H112.363ZM121.645 100.248V101.437H124.774V99.0901H125.963V108.854H124.774V105.288H121.645V106.492H115.507V100.248H121.645ZM116.68 101.226V105.544H120.487V101.226H116.68ZM126.263 111.17V112.163H117.312V107.981H118.501V111.17H126.263ZM121.645 104.31H124.774V102.43H121.645V104.31Z" fill="#07C093"/>
<path fill-rule="evenodd" clip-rule="evenodd" d="M68.4931 26.8789H79.62V50.2849C79.62 50.8372 80.0677 51.2849 80.62 51.2849C81.1723 51.2849 81.62 50.8372 81.62 50.2849V39.9853H88.7109C89.2632 39.9853 89.7109 39.5375 89.7109 38.9853C89.7109 38.433 89.2632 37.9853 88.7109 37.9853H81.62V26.8789H116.113C117.005 26.8789 117.727 27.6016 117.727 28.4931V76.113C117.727 77.0046 117.005 77.7273 116.113 77.7273H109.656V79.3415H116.113C117.896 79.3415 119.342 77.8961 119.342 76.113V28.4931C119.342 26.7101 117.896 25.2646 116.113 25.2646H68.4931C66.7101 25.2646 65.2646 26.7101 65.2646 28.4931V76.113C65.2646 77.8961 66.7101 79.3415 68.4931 79.3415H94.3209V78.2985H94.5134C94.5134 71.9897 96.9865 68.6024 99.9318 66.8261C102.954 65.0034 106.634 64.783 109.1 65.1623C109.646 65.2463 110.157 64.8719 110.241 64.326C110.325 63.7802 109.95 63.2696 109.404 63.1856C106.624 62.7578 102.434 62.9813 98.899 65.1135C95.387 67.2315 92.6682 71.1453 92.5198 77.7273H81.5995V64.0059C81.5995 63.4536 81.1518 63.0059 80.5995 63.0059C80.0472 63.0059 79.5995 63.4536 79.5995 64.0059V77.7273H68.4931C67.6016 77.7273 66.8789 77.0046 66.8789 76.113V28.4931C66.8789 27.6016 67.6016 26.8789 68.4931 26.8789ZM103.813 38.9853C103.813 38.433 104.261 37.9853 104.813 37.9853H117.727V39.9853H104.813C104.261 39.9853 103.813 39.5375 103.813 38.9853Z" fill="#07C093"/>
</svg>
