<svg width="186" height="138" viewBox="0 0 186 138" fill="none" xmlns="http://www.w3.org/2000/svg">
<rect x="1.32031" y="0.75" width="183.359" height="135.744" rx="13.25" fill="white"/>
<rect x="1.32031" y="0.75" width="183.359" height="135.744" rx="13.25" stroke="#E8E8E8" stroke-width="1.5"/>
<path d="M42.4677 107.53C45.3411 107.53 47.1614 108.432 47.1614 109.982C47.1614 111.516 45.3411 112.419 42.4677 112.419C39.6093 112.419 37.789 111.516 37.789 109.982C37.789 108.432 39.6093 107.53 42.4677 107.53ZM42.4677 108.432C40.3314 108.447 38.9474 109.034 38.9624 109.982C38.9474 110.915 40.3314 111.486 42.4677 111.486C44.6039 111.486 45.9729 110.915 45.9879 109.982C45.9729 109.034 44.6039 108.447 42.4677 108.432ZM47.0561 99.767V100.895C47.0561 101.978 47.0561 103.062 46.68 104.446L45.5216 104.31C45.8826 102.926 45.8826 101.948 45.8826 100.895V100.73H37.8793V99.767H47.0561ZM48.6056 105.318V106.281H36.4351V105.318H41.4748V102.731H42.6332V105.318H48.6056ZM60.8212 99.0901V108.974H59.6327V105.363H56.1726C55.5558 106.153 54.5629 106.627 53.4196 106.627C51.4188 106.627 49.9445 105.243 49.9445 103.287C49.9445 101.332 51.4188 99.9476 53.4196 99.9325C54.5554 99.94 55.5257 100.406 56.1576 101.181H59.6327V99.0901H60.8212ZM61.1973 111.17V112.163H52.2311V107.936H53.4196V111.17H61.1973ZM53.4196 100.986C52.0506 101.001 51.0728 101.948 51.0728 103.287C51.0728 104.626 52.0506 105.574 53.4196 105.574C54.7284 105.574 55.7364 104.626 55.7364 103.287C55.7364 101.948 54.7284 101.001 53.4196 100.986ZM56.6992 102.159C56.812 102.505 56.8797 102.881 56.8797 103.287C56.8797 103.678 56.812 104.047 56.6992 104.386H59.6327V102.159H56.6992ZM67.5759 101.617C67.5759 103.363 68.8847 104.927 70.8555 105.574L70.2988 106.507C68.7568 106.003 67.5909 104.935 67.0193 103.588C66.4401 105.123 65.2065 106.319 63.6043 106.898L63.0026 105.95C65.0034 105.273 66.4025 103.543 66.4175 101.617V101.046H63.3636V100.068H70.5847V101.046H67.5759V101.617ZM73.5032 99.075V102.49H75.5191V103.483H73.5032V107.154H72.3298V99.075H73.5032ZM69.2157 107.515C71.9687 107.515 73.6235 108.417 73.6235 109.952C73.6235 111.516 71.9687 112.419 69.2157 112.419C66.4626 112.419 64.7777 111.516 64.7777 109.952C64.7777 108.417 66.4626 107.515 69.2157 107.515ZM69.2157 108.462C67.1998 108.462 65.9511 109.019 65.9662 109.952C65.9511 110.915 67.1998 111.471 69.2157 111.471C71.2466 111.471 72.4802 110.915 72.4802 109.952C72.4802 109.019 71.2466 108.462 69.2157 108.462ZM91.27 99.0901V108.869H90.0966V99.0901H91.27ZM91.6912 111.17V112.163H82.6348V107.876H83.8082V111.17H91.6912ZM84.0489 100.023C86.0498 100.023 87.5541 101.377 87.5541 103.302C87.5541 105.258 86.0498 106.597 84.0489 106.597C82.0481 106.597 80.5437 105.258 80.5437 103.302C80.5437 101.377 82.0481 100.023 84.0489 100.023ZM84.0489 101.061C82.695 101.061 81.687 101.994 81.7021 103.302C81.687 104.641 82.695 105.559 84.0489 105.559C85.3728 105.559 86.3958 104.641 86.3958 103.302C86.3958 101.994 85.3728 101.061 84.0489 101.061ZM99.8901 99.9024V103.648H95.2867V105.724C97.799 105.724 99.0928 105.687 100.672 105.393L100.793 106.371C99.1229 106.642 97.7689 106.687 95.061 106.687H94.1133V102.746H98.7167V100.85H94.0832V99.9024H99.8901ZM104.629 99.0901V107.304H103.44V104.822H100.778V103.844H103.44V102.039H100.778V101.076H103.44V99.0901H104.629ZM104.629 108.026V112.479H103.44V108.989H95.6177V108.026H104.629ZM121.072 99.075V104.521H123.238V105.514H121.072V112.449H119.898V99.075H121.072ZM117.612 100.519C117.612 104.31 115.837 107.755 111.474 109.907L110.812 108.974C114.272 107.251 116.153 104.679 116.423 101.512H111.429V100.519H117.612ZM135.063 99.075V112.479H133.874V99.075H135.063ZM127.947 100.113C129.933 100.128 131.362 101.933 131.362 104.777C131.362 107.62 129.933 109.425 127.947 109.425C125.946 109.425 124.532 107.62 124.532 104.777C124.532 101.933 125.946 100.128 127.947 100.113ZM127.947 101.166C126.608 101.181 125.675 102.595 125.675 104.777C125.675 106.958 126.608 108.372 127.947 108.372C129.286 108.372 130.219 106.958 130.219 104.777C130.219 102.595 129.286 101.181 127.947 101.166ZM148.151 105.514V106.492H138.914V100.324H148.015V101.302H140.087V105.514H148.151ZM149.595 109.636V110.629H137.349V109.636H149.595Z" fill="#828282"/>
<path d="M111.25 38.0496C110.884 43.3875 107.112 47.4996 103 47.4996C98.8875 47.4996 95.11 43.3889 94.75 38.0496C94.375 32.4964 98.0462 28.5996 103 28.5996C107.954 28.5996 111.625 32.5975 111.25 38.0496Z" stroke="#E8E8E8" stroke-width="2" stroke-linecap="round" stroke-linejoin="round"/>
<path d="M103 55.9004C94.8533 55.9004 87.0195 60.149 85.057 68.423C84.797 69.5176 85.4508 70.6004 86.522 70.6004H119.478C120.55 70.6004 121.2 69.5176 120.943 68.423C118.981 60.0164 111.147 55.9004 103 55.9004Z" stroke="#E8E8E8" stroke-width="2" stroke-miterlimit="10"/>
<path d="M85.9983 40.4044C85.7058 44.6674 82.6583 48.0248 79.3733 48.0248C76.0883 48.0248 73.0358 44.6687 72.7483 40.4044C72.4495 35.9695 75.4158 32.7998 79.3733 32.7998C83.3308 32.7998 86.297 36.0509 85.9983 40.4044Z" stroke="#E8E8E8" stroke-width="2" stroke-linecap="round" stroke-linejoin="round"/>
<path d="M86.7493 56.1639C84.493 55.0785 82.008 54.6611 79.3743 54.6611C72.8743 54.6611 66.6118 58.0539 65.043 64.6624C64.8368 65.5365 65.3593 66.4014 66.2143 66.4014H80.2493" stroke="#E8E8E8" stroke-width="2" stroke-miterlimit="10" stroke-linecap="round"/>
</svg>
