<svg width="185" height="138" viewBox="0 0 185 138" fill="none" xmlns="http://www.w3.org/2000/svg">
<rect x="0.75" y="0.75" width="183.359" height="135.744" rx="13.25" fill="white"/>
<rect x="0.75" y="0.75" width="183.359" height="135.744" rx="13.25" stroke="#07C093" stroke-width="1.5"/>
<path d="M78.5743 106.853V107.831H72.993V112.449H71.8347V107.831H66.3286V106.853H78.5743ZM76.9797 99.8272V105.032H67.9082V99.8272H76.9797ZM69.0666 100.79V104.1H75.8062V100.79H69.0666ZM91.0908 99.075V112.449H89.9625V105.439H87.9918V111.757H86.9086V99.3759H87.9918V104.461H89.9625V99.075H91.0908ZM85.1635 100.715V101.693H81.3273V108.131C83.1702 108.124 84.4489 108.056 85.9308 107.755L86.0361 108.748C84.4264 109.079 83.0574 109.139 81.0114 109.139H80.1539V100.715H85.1635ZM97.4995 101.617C97.4995 103.363 98.8083 104.927 100.779 105.574L100.222 106.507C98.6804 106.003 97.5145 104.935 96.9429 103.588C96.3637 105.123 95.1301 106.319 93.5279 106.898L92.9262 105.95C94.927 105.273 96.3261 103.543 96.3411 101.617V101.046H93.2872V100.068H100.508V101.046H97.4995V101.617ZM103.427 99.075V102.49H105.443V103.483H103.427V107.154H102.253V99.075H103.427ZM99.1393 107.515C101.892 107.515 103.547 108.417 103.547 109.952C103.547 111.516 101.892 112.419 99.1393 112.419C96.3863 112.419 94.7013 111.516 94.7013 109.952C94.7013 108.417 96.3863 107.515 99.1393 107.515ZM99.1393 108.462C97.1234 108.462 95.8748 109.019 95.8898 109.952C95.8748 110.915 97.1234 111.471 99.1393 111.471C101.17 111.471 102.404 110.915 102.404 109.952C102.404 109.019 101.17 108.462 99.1393 108.462ZM117.312 99.075V112.449H116.124V99.075H117.312ZM111.22 103.438C111.22 105.679 112.784 107.846 114.8 108.703L114.138 109.621C112.596 108.936 111.287 107.485 110.663 105.709C110.061 107.59 108.76 109.132 107.218 109.861L106.556 108.944C108.542 108.041 110.061 105.785 110.061 103.438V102.37H106.917V101.407H110.046V99.3308H111.22V101.407H114.334V102.37H111.22V103.438Z" fill="#07C093"/>
<path d="M65.6562 33.0853C65.6562 32.7806 65.7773 32.4884 65.9927 32.273C66.2082 32.0576 66.5004 31.9365 66.8051 31.9365H117.352C117.657 31.9365 117.949 32.0576 118.165 32.273C118.38 32.4884 118.501 32.7806 118.501 33.0853C118.501 33.39 118.38 33.6822 118.165 33.8977C117.949 34.1131 117.657 34.2341 117.352 34.2341H66.8051C66.5004 34.2341 66.2082 34.1131 65.9927 33.8977C65.7773 33.6822 65.6562 33.39 65.6562 33.0853ZM66.8051 52.615H82.8883C83.193 52.615 83.4852 52.494 83.7006 52.2785C83.9161 52.0631 84.0371 51.7709 84.0371 51.4662C84.0371 51.1615 83.9161 50.8693 83.7006 50.6539C83.4852 50.4384 83.193 50.3174 82.8883 50.3174H66.8051C66.5004 50.3174 66.2082 50.4384 65.9927 50.6539C65.7773 50.8693 65.6562 51.1615 65.6562 51.4662C65.6562 51.7709 65.7773 52.0631 65.9927 52.2785C66.2082 52.494 66.5004 52.615 66.8051 52.615ZM87.4835 68.6983H66.8051C66.5004 68.6983 66.2082 68.8193 65.9927 69.0347C65.7773 69.2502 65.6562 69.5424 65.6562 69.8471C65.6562 70.1518 65.7773 70.444 65.9927 70.6594C66.2082 70.8748 66.5004 70.9959 66.8051 70.9959H87.4835C87.7882 70.9959 88.0804 70.8748 88.2959 70.6594C88.5113 70.444 88.6323 70.1518 88.6323 69.8471C88.6323 69.5424 88.5113 69.2502 88.2959 69.0347C88.0804 68.8193 87.7882 68.6983 87.4835 68.6983ZM122.68 55.1137L115.655 60.9122L117.798 69.5599C117.852 69.7795 117.841 70.0102 117.764 70.2233C117.688 70.4364 117.551 70.6222 117.37 70.7575C117.17 70.9045 116.928 70.984 116.68 70.9844C116.478 70.9832 116.28 70.9287 116.106 70.8264L108.162 66.1652L100.224 70.8379C100.029 70.9525 99.8044 71.0071 99.5786 70.9947C99.3528 70.9823 99.1357 70.9036 98.9545 70.7683C98.7732 70.6331 98.6359 70.4474 98.5598 70.2344C98.4837 70.0215 98.472 69.7909 98.5264 69.5714L100.669 60.9122L93.644 55.1137C93.4667 54.968 93.337 54.7726 93.2717 54.5526C93.2065 54.3326 93.2086 54.0981 93.2778 53.8793C93.347 53.6606 93.4802 53.4675 93.6601 53.3251C93.84 53.1827 94.0585 53.0974 94.2873 53.0803L103.547 52.3651L107.108 44.1196C107.197 43.9141 107.344 43.7391 107.532 43.6161C107.719 43.4932 107.938 43.4277 108.162 43.4277C108.386 43.4277 108.605 43.4932 108.792 43.6161C108.98 43.7391 109.127 43.9141 109.216 44.1196L112.777 52.3651L122.037 53.0803C122.266 53.0974 122.484 53.1827 122.664 53.3251C122.844 53.4675 122.977 53.6606 123.046 53.8793C123.115 54.0981 123.118 54.3326 123.052 54.5526C122.987 54.7726 122.857 54.968 122.68 55.1137ZM119.021 55.1539L111.896 54.6024C111.687 54.5862 111.487 54.5134 111.317 54.3919C111.147 54.2705 111.014 54.1049 110.931 53.9132L108.162 47.4741L105.382 53.9132C105.299 54.1049 105.165 54.2705 104.995 54.3919C104.825 54.5134 104.625 54.5862 104.417 54.6024L97.3029 55.1539L102.705 59.6026C102.869 59.7396 102.992 59.9196 103.06 60.1226C103.127 60.3256 103.137 60.5434 103.087 60.7514L101.427 67.4604L107.588 63.8417C107.764 63.7376 107.966 63.6828 108.171 63.6828C108.376 63.6828 108.577 63.7376 108.754 63.8417L114.92 67.4719L113.26 60.7629C113.21 60.5548 113.22 60.3371 113.287 60.1341C113.355 59.9311 113.478 59.751 113.642 59.6141L119.021 55.1539Z" fill="#07C093"/>
</svg>
